<?xml version="1.0" standalone="no"?>
<!DOCTYPE svg PUBLIC "-//W3C//DTD SVG 1.1//EN" "http://www.w3.org/Graphics/SVG/1.1/DTD/svg11.dtd" >
<svg xmlns="http://www.w3.org/2000/svg">
<metadata>
<json>
<![CDATA[
{
	"fontFamily": "Unraid",
	"majorVersion": 5,
	"minorVersion": 141,
	"fontURL": "http://www.unraid.net",
	"description": "Unraid Icons\nFont generated by IcoMoon.",
	"copyright": "Magnus Engø",
	"designer": "Magnus Engø",
	"designerURL": "http://www.magnusengo.net",
	"version": "Version 5.141",
	"fontId": "Unraid",
	"psName": "Unraid",
	"subFamily": "Regular",
	"fullName": "Unraid"
}
]]>
</json>
</metadata>
<defs>
<font id="Unraid" horiz-adv-x="1024">
<font-face units-per-em="1024" ascent="960" descent="-64" />
<missing-glyph horiz-adv-x="1024" />
<glyph unicode="&#x20;" horiz-adv-x="512" d="" />
<glyph unicode="&#xe900;" glyph-name="app" data-tags="App" d="M0 928h1024v-960h-1024v960zM64 864v-832h896v832h-896zM800 800h96v-64h-96v64zM128 416h640v-32h-640v32zM128 224h512v-32h-512v32zM128 352h448v-32h-448v32zM128 160h384v-32h-384v32zM672 800h96v-64h-96v64zM128 512h320v-32h-320v32zM128 288h320v-32h-320v32zM544 800h96v-64h-96v64zM128 576h416v-32h-416v32z" />
<glyph unicode="&#xe901;" glyph-name="apple" data-tags="Apple" d="M928 223.697c-31.44-91.203-125.56-252.688-222.52-254.448-64.32-1.24-85 38.121-158.52 38.121-73.48 0-96.48-36.921-157.28-39.321-102.88-3.96-261.68 233.088-261.68 439.814 0 189.886 132.32 284.009 247.92 285.729 62 1.12 120.56-41.801 158.36-41.801 37.96 0 109.080 51.602 183.84 44.041 31.28-1.32 119.16-12.6 175.56-95.083-149.64-97.683-126.32-301.97 34.32-377.052zM719.12 928c-113.040-4.56-205.28-123.164-192.4-221.247 104.48-8.12 204.72 109.004 192.4 221.247z" />
<glyph unicode="&#xe902;" glyph-name="clock" data-tags="Clock" d="M480.052 449.85l-165.952 103.698 16.957 27.138 166.536-104.063c4.321 2.163 9.213 3.377 14.407 3.377 5.947 0 11.496-1.631 16.248-4.455l267.706 216.784 13.507-16.679-261.71-211.929 288.55 66.617 2.414-10.456-294.94-68.092c0.149-1.245 0.226-2.509 0.226-3.79 0-0.125-0.001-0.249-0.002-0.374l31.297-19.556-16.957-27.138-30.763 19.223c-4.633-2.639-9.956-4.155-15.574-4.155-6.29 0-12.135 1.825-17.062 4.955l-33.639-27.24-13.507 16.679 33.229 26.908-47.645-11-2.414 10.456 49.038 11.321c0.001 0.594 0.019 1.185 0.052 1.771zM512-32c-265.097 0-480 214.903-480 480s214.903 480 480 480c265.097 0 480-214.903 480-480s-214.903-480-480-480zM512 32c229.75 0 416 186.25 416 416s-186.25 416-416 416c-229.75 0-416-186.25-416-416s186.25-416 416-416zM504 832h16v-64h-16v64zM128 456h64v-16h-64v16zM504 128h16v-64h-16v64zM832 456h64v-16h-64v16z" />
<glyph unicode="&#xe903;" glyph-name="confirmations" data-tags="Confirmations" d="M1024 928v-800h-224v-192l-256 192h-544v800h1024zM960 192v672h-896v-672h512l160-128v128h224zM320 516.923l45.176 44.308 90.353-88.615 203.294 199.385 45.176-44.308-248.471-243.692-135.529 132.923z" />
<glyph unicode="&#xe904;" glyph-name="cpu-pinning" data-tags="CPU Pinning" d="M682.667 928h-85.333v-64h85.333v64zM341.333 864h85.333v64h-85.333v-64zM928 618.667v-85.333h64v85.333h-64zM725.333 864h138.667c32 0 64-32 64-64v-138.667h64v138.667c0 70.699-57.301 128-128 128h-138.667v-64zM426.667-32v64h-85.333v-64h85.333zM928 490.667v-85.333h64v85.333h-64zM992 362.667h-64v-85.333h64v85.333zM469.333 864h85.333v64h-85.333v-64zM554.667 32h-85.333v-64h85.333v64zM298.667 32h-138.667c-32 0-64 32-64 64v138.667h-64v-138.667c0-70.699 57.301-128 128-128h138.667v64zM32 405.333h64v85.333h-64v-85.333zM928 234.667v-138.667c0-32-32-64-64-64h-138.667v-64h138.667c70.699 0 128 57.301 128 128v138.667h-64zM32 533.333h64v85.333h-64v-85.333zM682.667 32h-85.333v-64h85.333v64zM96 661.333v138.667c0 32 32 64 64 64h138.667v64h-138.667c-70.699 0-128-57.301-128-128v-138.667h64zM32 277.333h64v85.333h-64v-85.333zM320 576c-35.346 0-64 28.654-64 64s28.654 64 64 64c35.346 0 64-28.654 64-64s-28.654-64-64-64zM512 576c-35.346 0-64 28.654-64 64s28.654 64 64 64c35.346 0 64-28.654 64-64s-28.654-64-64-64zM704 576c-35.346 0-64 28.654-64 64s28.654 64 64 64c35.346 0 64-28.654 64-64s-28.654-64-64-64zM704 384c-35.346 0-64 28.654-64 64s28.654 64 64 64c35.346 0 64-28.654 64-64s-28.654-64-64-64zM704 192c-35.346 0-64 28.654-64 64s28.654 64 64 64c35.346 0 64-28.654 64-64s-28.654-64-64-64zM512 384c-35.346 0-64 28.654-64 64s28.654 64 64 64c35.346 0 64-28.654 64-64s-28.654-64-64-64zM512 192c-35.346 0-64 28.654-64 64s28.654 64 64 64c35.346 0 64-28.654 64-64s-28.654-64-64-64zM320 384c-35.346 0-64 28.654-64 64s28.654 64 64 64c35.346 0 64-28.654 64-64s-28.654-64-64-64zM320 192c-35.346 0-64 28.654-64 64s28.654 64 64 64c35.346 0 64-28.654 64-64s-28.654-64-64-64z" />
<glyph unicode="&#xe905;" glyph-name="cpu" data-tags="CPU" d="M224 736h576v-576h-576v576zM288 672v-448h448v448h-448zM682.667 928h-85.333v-64h85.333v64zM341.333 864h85.333v64h-85.333v-64zM928 618.667v-85.333h64v85.333h-64zM725.333 864h138.667c32 0 64-32 64-64v-138.667h64v138.667c0 70.699-57.301 128-128 128h-138.667v-64zM426.667-32v64h-85.333v-64h85.333zM928 490.667v-85.333h64v85.333h-64zM992 362.667h-64v-85.333h64v85.333zM469.333 864h85.333v64h-85.333v-64zM554.667 32h-85.333v-64h85.333v64zM298.667 32h-138.667c-32 0-64 32-64 64v138.667h-64v-138.667c0-70.699 57.301-128 128-128h138.667v64zM32 405.333h64v85.333h-64v-85.333zM928 234.667v-138.667c0-32-32-64-64-64h-138.667v-64h138.667c70.699 0 128 57.301 128 128v138.667h-64zM32 533.333h64v85.333h-64v-85.333zM682.667 32h-85.333v-64h85.333v64zM96 661.333v138.667c0 32 32 64 64 64h138.667v64h-138.667c-70.699 0-128-57.301-128-128v-138.667h64zM32 277.333h64v85.333h-64v-85.333z" />
<glyph unicode="&#xe906;" glyph-name="disk-encrypted" data-tags="Disk encrypted" d="M0 352l192 576h637.651l194.349-576v-384h-1024v384zM64 352h896l-170.056 512h-557.944l-168-512zM64 32h896v256h-896v-256zM128 192h192v-64h-192v64zM576 640c0 8.686 0 22.87 0 42.549 0 29.52-28.654 53.451-64 53.451s-64-23.931-64-53.451c0-10.745 0-24.928 0-42.549h128zM608 640h32v-160h-256v160h32c0 2.545 0 18.545 0 48 0 44.183 42.981 80 96 80s96-35.817 96-80c0-29.455 0-45.455 0-48z" />
<glyph unicode="&#xe907;" glyph-name="disk" data-tags="Disk" d="M0 352l192 576h637.651l194.349-576v-384h-1024v384zM64 352h896l-170.056 512h-557.944l-168-512zM64 32h896v256h-896v-256zM128 192h192v-64h-192v64z" />
<glyph unicode="&#xe908;" glyph-name="disks" data-tags="Disks" d="M96 336h832v224h-832v-224zM992 272v-304h-960v960h960v-656zM928 272h-832v-240h832v240zM96 624h832v240h-832v-240zM160 768h192v-64h-192v64zM160 476.308h192v-64h-192v64zM160 176h192v-64h-192v64z" />
<glyph unicode="&#xe909;" glyph-name="profile" data-tags="profile" d="M928 159.958v704.042h-832v-832h688.429l-137.243 137.243c-107.052-51.14-239.154-32.375-327.823 56.294s-107.434 220.771-56.294 327.823l214.686-214.686 135.764 135.765-214.686 214.686c107.052 51.139 239.154 32.375 327.823-56.294s107.434-220.771 56.294-327.823l145.049-145.049zM32 928h960v-960h-960v960z" />
<glyph unicode="&#xe90a;" glyph-name="display" data-tags="Display" d="M160 32h704v-64h-704v64zM704-32h-384v288h384v-288zM384 32h256v160h-256v-160zM1024 192h-1024v736h1024v-736zM64 256h896v608h-896v-608z" />
<glyph unicode="&#xe90b;" glyph-name="docker" data-tags="Docker" d="M579.52 475.461h106.069v94.865h-106.069v-94.865zM453.247 475.461h106.069v94.865h-106.069v-94.865zM329.499 475.461h106.069v94.865h-106.069v-94.865zM205.752 475.461h103.544v94.865h-103.544v-94.865zM79.479 475.461h106.069v94.865h-106.069v-94.865zM205.752 590.298h103.544v94.865h-103.544v-94.865zM329.499 590.298h106.069v94.865h-106.069v-94.865zM453.247 590.298h106.069v94.865h-106.069v-94.865zM453.247 705.135h106.069v94.865h-106.069v-94.865zM1024 517.901c0 0-45.458 42.44-138.9 27.461-10.102 72.397-88.391 114.837-88.391 114.837s-73.238-87.376-20.204-184.738c-15.153-7.489-40.407-17.475-78.289-17.475h-694.501c-12.627-47.433-12.627-361.986 335.886-361.986 250.020 0 436.904 114.837 525.295 324.539 131.324-9.986 159.104 97.362 159.104 97.362z" />
<glyph unicode="&#xe90c;" glyph-name="ethernet" data-tags="Ethernet" d="M32 928h960v-960h-960v960zM96 864v-832h832v832h-832zM224 160h576v352h-96v96h-128v96h-128v-96h-128v-96h-96v-352zM160 96v480h96v96h128v96h256v-96h128v-96h96v-480h-704zM672 352h64v-128h-64v128zM288 352h64v-128h-64v128zM384 352h64v-128h-64v128zM480 352h64v-128h-64v128zM576 352h64v-128h-64v128z" />
<glyph unicode="&#xe90d;" glyph-name="fan" data-tags="Fan" d="M512 928c265.097 0 480-214.903 480-480s-214.903-480-480-480c-265.097 0-480 214.903-480 480s214.903 480 480 480zM512 864c-229.75 0-416-186.25-416-416s186.25-416 416-416c229.75 0 416 186.25 416 416s-186.25 416-416 416zM482.111 832c44.833 0 89.666-59.077 89.666-162.462l0.040-86.153c9.991-4.317 19.411-9.683 28.12-15.957 27.764 20 50.047 49.423 66.833 88.258 29.352 67.91-26.421 104.303-0.537 119.072s122.486-32.436 167.319-109.179c22.416-38.372-6.936-106.282-97.531-157.974-35.794-20.423-60.981-34.795-75.562-43.114 0.671-5.412 0.984-10.916 0.984-16.493 0-5.246-0.277-10.429-0.817-15.534 31.384-13.775 68.318-18.139 110.753-13.086 74.185 8.833 78.189 74.764 104.074 59.995s32.82-121.051-12.011-197.796c-22.419-38.37-96.604-47.203-187.199 4.489-35.794 20.423-60.981 34.795-75.562 43.114-8.612-6.363-18.001-11.793-27.965-16.177 3.617-33.755 18.259-67.534 43.894-101.314 44.833-59.077 104.61-29.538 104.61-59.077s-89.666-88.615-179.332-88.615c-44.833 0-89.666 59.077-89.666 162.462l-0.040 86.153c-9.991 4.317-19.411 9.683-28.12 15.957-27.764-20-50.047-49.423-66.833-88.258-29.352-67.91 26.421-104.303 0.537-119.072s-122.486 32.436-167.319 109.179c-22.416 38.372 6.936 106.282 97.531 157.974 35.794 20.423 60.981 34.795 75.562 43.114-0.671 5.412-0.984 10.916-0.984 16.493 0 5.246 0.277 10.429 0.817 15.534-31.384 13.775-68.318 18.139-110.753 13.086-74.185-8.833-78.189-74.764-104.074-59.995s-32.82 121.051 12.011 197.796c22.419 38.37 96.604 47.203 187.199-4.489 35.794-20.423 60.981-34.795 75.562-43.114 8.612 6.363 18.001 11.793 27.965 16.177-3.617 33.755-18.259 67.534-43.894 101.314-44.833 59.077-104.61 29.538-104.61 59.077s89.666 88.615 179.332 88.615z" />
<glyph unicode="&#xe90e;" glyph-name="ftp" data-tags="FTP" d="M658.208 262.434c-30.281-29.558-29.441-77.436 1.6-104.154-36.801-71.996-86.402-136.393-145.723-190.27-232.485-1.52-432.169 165.471-474.090 392.219 42.361 71.156 97.642 133.753 162.563 184.55 29.161-19.719 69.281-14.119 93.362 13.119 153.403-51.677 281.846-157.871 362.288-295.464v0zM53.876 591.736c-15.84-50.597-23.2-103.434-21.68-157.631 40.041 55.917 87.802 105.834 143.003 148.872l-0.8 3.32c-41.321 5.64-80.762 7.24-120.523 5.44zM974.375 577.137c-58.761 38.558-123.963 68.076-193.644 86.475-5.6-10.279-14.16-18.679-24.721-24.439 31.361-120.833 30.441-249.306-2.88-369.9 34.361-26.359 36.041-77.596 3.12-108.034 12.2-35.238 21.56-71.516 28.081-108.514 172.924 119.354 243.805 331.502 190.044 524.411v0zM641.048 684.971c-114.042 5.12-226.205-18.839-327.447-69.796 0.76-5.4 0.76-9.679 0.52-13.919 168.324-57.277 303.726-174.91 386.488-318.183l7.96 0.6c31.201 113.354 31.641 233.787 1.12 347.541-32.081 4.4-58.761 26.479-68.641 53.757v0zM707.89 769.847c36.681-1.76 68.321-27.159 77.442-59.037 57.041-14.319 111.842-35.678 163.443-63.597-62.361 136.473-186.724 238.587-337.127 270.385 38.481-45.518 70.681-95.115 96.242-147.752v0zM71.476 638.894c36.041 0.64 71.481-1.28 108.522-6.24 20.92 42.918 76.802 54.997 111.522 24.079 110.642 55.837 231.365 79.996 350.087 74.876 4.28 10.159 11.28 18.799 20.24 25.279-31.761 63.197-73.322 120.633-122.683 170.351-207.564 11.559-390.088-109.514-467.69-288.344zM703.969 141.401c-30.401-60.557-69.681-116.994-117.162-167.591 55.201 8.64 107.282 26.679 154.523 52.437-5.92 39.758-15.36 78.396-28.001 115.554l-9.36-0.4z" />
<glyph unicode="&#xe90f;" glyph-name="home" data-tags="Home" d="M32 544l480 384 480-384v-576h-960v576zM96 512v-480h832v480l-416 320-416-320zM608 32v320h-192v-320h-64v384h320v-384h-64z" />
<glyph unicode="&#xe910;" glyph-name="linux" data-tags="Linux" d="M878.868 166.040c-22.489 17.84-13.739 57.24-37.086 76.68 22.612 134.6-40.766 253.24-116.329 329.28-63.419 63.8-42.974 125.88-42.974 179.6 0 85.84-36.023 176.4-145.156 176.4-116.656 0-148.631-95.2-149.776-149.52-2.78-130.48 26.946-164.4-51.111-259.36-91.836-111.72-105.371-223.16-84.64-282.28-9.691-11.040-22.775-23.28-47.227-33.4-67.548-28.8-18.032-77-36.718-111.2-5.316-9.72-7.851-19.88-7.851-29.6 0-30 24.37-55.96 68.652-52.080 59.739 5.2 114.857-36.2 150.512-36.2 31.484 0 57.326 17.52 69.348 41.64 56.304 13.56 125.815 11.84 182.078-2.36 10.1-27.64 37.495-45.64 67.957-45.64 66.69 0 79.529 73.96 156.032 99 27.559 9 41.42 35.16 41.42 59.52 0 15.6-5.684 30.44-17.132 39.52zM504.857 584.64c-13.044 0-23.838 10.32-40.889 22.72-21.589 15.68-43.547 24.72-43.301 41.2 0 11.32 15.497 14.8 35.532 27.24 21.508 13.32 29.89 26.84 51.070 26.84 21.671 0 28.213-10.72 57.653-23.16 28.949-12.28 49.108-17.080 49.108-30.92 0-14.2-30.299-24.36-47.349-34.72-25.065-15.12-37.945-29.2-61.824-29.2v0zM572.937 793.24c36.064-5.64 40.112-67.64 22.857-98.16l-14.516 5.8c7.524 21.72 7.401 57.48-17.787 59.76-15.988 1.44-26.292-19.2-28.5-36.88-6.256 2.56-13.084 4.4-21.385 5.080 2.535 36.92 26.905 69.48 59.33 64.4v0zM433.792 780c27.641 6.72 43.956-24.72 44.078-57.4l-12.676-7.6c-1.717 13.72-7.973 35.88-23.675 31.16-16.805-5.12-14.066-43.32-4.702-51.16l-12.512-6.8c-17.173 28.28-17.132 85.32 9.486 91.8v0zM347.312 10.28c-80.265 35.72-107.538 27.6-122.871 27.6-31.771 0-42.156 23.16-30.217 45.080 10.14 18.6 6.992 38.080 4.498 53.72-3.844 23.96-4.539 31.76 19.545 42.080 33.324 13.84 48.126 31.64 59.166 44.96 30.994 37.48 62.274-21.48 87.911-74 16.642-34.040 49.394-51.28 59.493-89 9.282-34.84-29.031-72.040-77.525-50.44v0zM633.003 85.24c-56.59-26.92-128.677-39.28-182.61-11.96-7.973 22.52-20.731 37.080-34.469 51.72 22.039 5.68 38.395 32.56 18.809 59.56-20.894 28.84-63.582 48.96-106.72 81.6-40.357 30.52-53.115 105.76 1.84 189.84-26.782-74.48-11.122-143.12 2.331-162.76 2.78 39.52 5.97 105.52 61.17 184.6 27.845 39.92 28.254 92.64 28.868 125.6l25.351-16.96c18.645-13.48 34.265-28.32 56.672-28.32 33.12 0 51.438 18.64 76.953 34.12 9.977 6 25.065 12.080 37.74 20.52 21.262-99.040 109.337-218.16 114.284-286 20.485 41.28-5.806 140.56-5.806 140.56 34.428-51.4 37.168-94.24 38.681-146.8 24.084-9.64 49.925-34.76 52.297-67.84l-10.018 1.12c-5.152 36.76-106.597 90.76-115.716 21.56-48.658-7.24-30.953-82.64-40.766-131.52-4.498-22.36-12.839-40.040-18.891-58.64zM831.15 86.88c-40.276-15.2-67.467-47.48-86.153-67.52-35.982-38.64-83.577-20.12-88.647 16.040-5.356 38.64 14.72 59.72 23.388 102.96 7.892 39.48-0.94 100.24 17.623 106.72 12.062-70.12 84.476-40.64 100.996-21.52 26.864 0 29.113-8.88 35.124-33.48 3.762-15.4 8.955-28.36 23.634-43.6 17.092-17.88 11.858-45.32-25.964-59.6zM504.039 607.12c-26.619 0-46.532 17.32-62.724 30.76-8.3 6.84 2.044 19.48 10.345 12.6 15.824-13.12 31.771-27 52.379-27 24.82 0 46.695 20.76 76.34 32.2 10.1 3.88 15.865-11.4 5.847-15.28-28.786-11.080-51.888-33.28-82.187-33.28v0z" />
<glyph unicode="&#xe911;" glyph-name="network" data-tags="Network" d="M544 480v128h-64v-128h-352v-192h64v128h288v-128h64v128h288v-128h64v192h-352zM640 224v-256h-256v256h256zM448 160v-128h128v128h-128zM288 224v-256h-256v256h256zM96 160v-128h128v128h-128zM992 224v-256h-256v256h256zM800 160v-128h128v128h-128zM672 672h-320v256h320v-256zM416 864v-128h192v128h-192z" />
<glyph unicode="&#xe912;" glyph-name="notifications" data-tags="Notifications" d="M992 448c0-265.080-214.92-480-480-480s-480 214.92-480 480c0 265.080 214.92 480 480 480s480-214.92 480-480zM928 448c0 229.382-186.618 416-416 416s-416-186.618-416-416c0-229.382 186.618-416 416-416s416 186.618 416 416zM416 533.333h128v-341.333h-64v288h-64v53.333zM560 624c0-26.496-21.504-48-48-48s-48 21.504-48 48c0 26.496 21.504 48 48 48s48-21.504 48-48z" />
<glyph unicode="&#xe913;" glyph-name="ram" data-tags="RAM" d="M160 928h704v-960h-704v960zM224 864v-832h576v832h-576zM0 480h128v-64h-128v64zM0 768h128v-64h-128v64zM0 384h128v-64h-128v64zM0 672h128v-64h-128v64zM0 288h128v-64h-128v64zM0 576h128v-64h-128v64zM0 192h128v-64h-128v64zM0 96h128v-64h-128v64zM0 864h128v-64h-128v64zM896 864h128v-64h-128v64zM896 480h128v-64h-128v64zM896 768h128v-64h-128v64zM896 384h128v-64h-128v64zM896 672h128v-64h-128v64zM896 288h128v-64h-128v64zM896 576h128v-64h-128v64zM896 192h128v-64h-128v64zM896 96h128v-64h-128v64z" />
<glyph unicode="&#xe914;" glyph-name="scheduler" data-tags="Scheduler" d="M32 928h960v-960h-960v960zM96 704v-672h832v672h-832zM593.159 271.333v81.333c-23.851-24.667-58.302-38-99.379-38-86.791 0-141.781 54-141.781 146.667 0 89.333 62.277 146.667 160.331 146.667 97.391 0 159.669-57.333 159.669-146.667v-190c0-87.333-55.652-143.333-159.669-143.333-103.354 0-160.331 52-160.331 130.667v11.333h78.841v-4c0-44 29.151-69.333 81.491-69.333 49.689 0 80.828 26.667 80.828 74.667zM512.331 539.333c-50.352 0-81.491-31.333-81.491-80.667 0-51.333 28.489-80 81.491-80 49.689 0 80.828 31.333 80.828 80 0 49.333-31.139 80.667-80.828 80.667z" />
<glyph unicode="&#xe915;" glyph-name="share" data-tags="Share" d="M435.945 375.319l267.721-130.576c31.817 45.499 84.6 75.257 144.334 75.257 97.202 0 176-78.798 176-176s-78.798-176-176-176c-97.202 0-176 78.798-176 176 0 14.642 1.788 28.866 5.157 42.466l-270.452 131.908c-40.594-57.114-107.299-94.374-182.705-94.374-123.712 0-224 100.288-224 224s100.288 224 224 224c76.351 0 143.779-38.199 184.217-96.528l268.306 136.709c-2.959 12.795-4.523 26.125-4.523 39.819 0 97.202 78.798 176 176 176s176-78.798 176-176c0-97.202-78.798-176-176-176-60.676 0-114.18 30.704-145.824 77.422l-265.395-135.226c7.28-22.080 11.219-45.678 11.219-70.197 0-25.44-4.241-49.89-12.055-72.681zM848 640c61.856 0 112 50.144 112 112s-50.144 112-112 112c-61.856 0-112-50.144-112-112s50.144-112 112-112zM848 32c61.856 0 112 50.144 112 112s-50.144 112-112 112c-61.856 0-112-50.144-112-112s50.144-112 112-112zM224 288c88.366 0 160 71.634 160 160s-71.634 160-160 160c-88.366 0-160-71.634-160-160s71.634-160 160-160z" />
<glyph unicode="&#xe916;" glyph-name="ups" data-tags="UPS" d="M0 832h608v-864h-608v864zM64 768v-736h480v736h-480zM160 864v64h288v-64h-288zM248.448 192l49.691 173.926h-106.139l174.944 242.074-48.384-166.703h97.44l-167.552-249.297zM800 160h64c0-146.824-16-192-224-192v64c160-2.111 160 25.224 160 128zM722.044 448h219.911c28.529 0 38.874-2.97 49.303-8.548s18.615-13.763 24.193-24.193c5.578-10.43 8.548-20.775 8.548-49.303v-45.956c0-96-57.308-128-128-128h-128c-70.692 0-128 32-128 128v45.956c0 28.529 2.97 38.874 8.548 49.303s13.763 18.615 24.193 24.193c10.43 5.578 20.775 8.548 49.303 8.548zM736 640c17.673 0 32-14.327 32-32v-128h-64v128c0 17.673 14.327 32 32 32zM928 640c17.673 0 32-14.327 32-32v-128h-64v128c0 17.673 14.327 32 32 32z" />
<glyph unicode="&#xe917;" glyph-name="user" data-tags="User" d="M511.962 546.133c81.989 0 143.512 98.040 143.512 209.067 0 77.572-64.066 140.8-143.512 140.8s-143.512-63.228-143.512-140.8c0-111.026 61.523-209.067 143.512-209.067zM511.962 482.133c-143.288 0-207.512 159.959-207.512 273.067s92.906 204.8 207.512 204.8c114.606 0 207.512-91.692 207.512-204.8s-64.225-273.067-207.512-273.067zM511.962 349.867c-81.428 0-154.041 29.958-213.235 83.101-27.071-17.424-47.060-55.296-59.34-112.324-9.963-46.267-15.298-123.295-15.386-229.316 2.858-28.552 22.774-52.985 51.051-61.936 55.844-17.678 153.652-29.392 233.732-29.392 81.202 0 181.185 12.042 239.875 30.362 28.42 8.872 48.471 33.369 51.34 62.027-0.089 105.297-5.446 181.927-15.45 228.148-12.363 57.115-32.344 94.983-59.387 112.399-59.189-53.123-131.789-83.069-213.2-83.069zM847.1 334.076c11.267-52.051 16.9-133.503 16.9-244.357-4.041-55.829-42.198-103.57-96.271-120.449-71.053-22.18-180.425-33.27-258.945-33.27-77.459 0-184.865 10.792-253.047 32.376-53.808 17.033-91.711 64.653-95.737 120.281 0 111.562 5.607 193.381 16.821 245.458 16.821 78.116 54.862 159.467 139.062 172.332 48.357-54.72 114.106-92.581 196.079-92.581 81.955 0 147.694 37.845 196.048 92.546 84.215-12.853 122.19-94.26 139.090-172.336z" />
<glyph unicode="&#xe918;" glyph-name="virtualization" data-tags="Virtualization" d="M480 960h64v-1024h-64v1024zM672 192h-64v64h352v608h-352v64h416v-736h-288v-160h160v-64h-288v64h64v160zM288 192h-288v736h416v-64h-352v-608h352v-64h-64v-160h64v-64h-288v64h160v160z" />
<glyph unicode="&#xe919;" glyph-name="windows" data-tags="Windows" d="M32 448v345.84l400 54.2v-400.040h-400zM472 448h520v480l-520-72.28v-407.72zM432 408h-400v-305.84l400-54.2v360.040zM472 408v-367.76l520-72.24v440h-520z" />
<glyph unicode="&#xe91a;" glyph-name="archive" data-tags="archive" d="M32 416l192 512h573.651l194.349-512v-448h-960v448zM96 416h288l32-32h192l32 32h288l-170.056 448h-493.944l-168-448zM96 32h832v320h-256l-32-32h-256l-32 32h-256v-320zM725.568 768h-426.914l11.332 32h404.278l11.304-32zM736.872 736l11.304-32h-472.185l11.332 32h449.549zM759.48 672l11.304-32h-517.457l11.332 32h494.821zM782.088 608l11.304-32h-562.728l11.332 32h540.093zM804.696 544l11.304-32h-608l11.332 32h585.364z" />
<glyph unicode="&#xe91b;" glyph-name="config" data-tags="config" d="M217.755 827.264c81.266 63.14 183.365 100.736 294.245 100.736 265.097 0 480-214.903 480-480s-214.903-480-480-480c-265.097 0-480 214.903-480 480 0 32.877 3.305 64.981 9.602 96h65.53c-7.28-30.817-11.132-62.959-11.132-96 0-229.75 186.25-416 416-416s416 186.25 416 416c0 229.75-186.25 416-416 416-93.192 0-179.226-30.643-248.577-82.404l66.616-66.616-265.129-90.51 84.11 271.529 68.736-68.736zM440.288 626.16c14.153 5.702 29.142 9.767 44.732 11.959l10.98 65.881h32l10.98-65.881c15.59-2.192 30.579-6.257 44.732-11.959l42.432 51.543 27.713-16-23.437-62.56c12.176-9.554 23.17-20.547 32.723-32.723l62.56 23.437 16-27.713-51.543-42.432c5.702-14.153 9.767-29.142 11.959-44.732l65.881-10.98v-32l-65.881-10.98c-2.192-15.59-6.257-30.579-11.959-44.732l51.543-42.432-16-27.713-62.56 23.437c-9.554-12.176-20.547-23.17-32.723-32.723l23.437-62.56-27.713-16-42.432 51.543c-14.153-5.702-29.142-9.767-44.732-11.959l-10.98-65.881h-32l-10.98 65.881c-15.59 2.192-30.579 6.257-44.732 11.959l-42.432-51.543-27.713 16 23.437 62.56c-12.176 9.554-23.17 20.547-32.723 32.723l-62.56-23.437-16 27.713 51.543 42.432c-5.702 14.153-9.767 29.142-11.959 44.732l-65.881 10.98v32l65.881 10.98c2.192 15.59 6.257 30.579 11.959 44.732l-51.543 42.432 16 27.713 62.56-23.437c9.554 12.176 20.547 23.17 32.723 32.723l-23.437 62.56 27.713 16 42.432-51.543zM512 320c70.692 0 128 57.308 128 128s-57.308 128-128 128c-70.692 0-128-57.308-128-128s57.308-128 128-128z" />
<glyph unicode="&#xe91c;" glyph-name="credits" data-tags="credits" d="M370.426 430.918c-36.213 74.701-71.142 76.079-118.46 177.082-21.968 46.891-34.679 100.225-38.133 160h-85.736c-1.493-71.068 13.631-135.24 45.198-193.518 26.459-48.848 92.075-97.689 197.131-143.564zM213.555 832c1.387 30.542 4.869 62.542 10.445 96h576c5.576-33.458 8.966-65.458 10.17-96h149.83c14.222-106.667-1.778-202.667-48-288-39.792-73.463-136.241-139.021-289.346-196.673-8.343-30.182-13.206-71.291-14.587-123.327-0.524-19.804-0.546-41.116-0.068-64h96l64-192h-512l64 192h96c0.479 22.884 0.457 44.196-0.066 63.936-1.415 53.333-6.478 95.154-15.188 125.521-149.848 57.135-244.423 121.983-283.727 194.544-46.222 85.333-62.222 181.333-48 288h144.535zM809.349 768c-4.12-59.775-17.903-113.109-41.349-160-51.207-102.414-81.929-102.4-116.751-180.257 109.348 46.793 177.405 96.762 204.476 146.739 31.567 58.278 46.691 122.45 45.198 193.518h-91.574zM657.871 96h-112.546l-1.311 62.661c-1.936 92.524 3.887 162.403 18.685 211.729 16.243 54.144 32.146 92.374 50.866 123.574 9.702 16.17 19.063 29.003 32.782 45.919 36.043 44.443 43.622 55.162 64.41 96.738 30.316 60.633 41.73 136.171 33.145 227.378h-463.9c-8.98-91.78 1.35-167.867 29.919-228.849 19.252-41.096 29.257-55.131 62.58-93.803 19.014-22.066 30.583-37.398 43.16-59.161 16.907-29.257 31.529-64.759 45.64-111.796 14.798-49.327 20.621-119.205 18.685-211.729l-1.311-62.661h-112.546l-21.333-64h334.409l-21.333 64z" />
<glyph unicode="&#xe91d;" glyph-name="diagnostics" data-tags="diagnostics" d="M160 32h704v-64h-704v64zM704-32h-384v288h384v-288zM384 32h256v160h-256v-160zM1024 192h-1024v736h1024v-736zM64 256h896v608h-896v-608zM394.234 516.859h-330.234v32h306.921l79.744 247.61 79.321-349.012 75.894 258.038 61.056-156.636h293.064v-32h-314.936l-34.944 89.646-84.106-285.962-80.679 354.988-51.101-158.672z" />
<glyph unicode="&#xe91e;" glyph-name="eula" data-tags="eula" d="M608 864h-416v-832h640v608h-224v224zM672 805.49v-101.49h101.49l-101.49 101.49zM128 928h512l256-256v-704h-768v960zM256 320h384v-32h-384v32zM256 128h384v-32h-384v32zM256 448h288v-32h-288v32zM256 256h320v-32h-320v32zM256 512h352v-32h-352v32zM256 384h480v-32h-480v32zM256 192h256v-32h-256v32z" />
<glyph unicode="&#xe91f;" glyph-name="hardware" data-tags="hardware" d="M160 224v-96h320v-160h-64v96h-256v-128h-64v960h-96v64h160v-224h864v-768h-64v704h-800v-96h128v-128h-128v-96h128v-128h-128zM576 480h224v-160h-224v160zM608 448v-96h160v96h-160zM832 480h64v-32h-64v32zM480 480h64v-32h-64v32zM832 416h64v-32h-64v32zM480 416h64v-32h-64v32zM832 352h64v-32h-64v32zM480 352h64v-32h-64v32zM576 576h32v-64h-32v64zM576 288h32v-64h-32v64zM640 576h32v-64h-32v64zM640 288h32v-64h-32v64zM704 576h32v-64h-32v64zM704 288h32v-64h-32v64zM768 576h32v-64h-32v64zM768 288h32v-64h-32v64zM704 96h32v-128h-32v128zM512 96h32v-128h-32v128zM768 96h32v-128h-32v128zM576 96h32v-128h-32v128zM832 96h32v-128h-32v128zM640 96h32v-128h-32v128zM896 96h32v-128h-32v128z" />
<glyph unicode="&#xe920;" glyph-name="key" data-tags="key" d="M960 244.012v-244.012l-242.332 2.302-0.989 97.67-97.922 0.987-17.145 81.557-81.767 17.101-0.989 97.67-97.922 0.987-24.713 24.649c-86.645-11.426-178.228 16.63-245.645 83.874-113.807 113.514-115.652 295.717-4.121 406.96s294.202 109.403 408.009-4.111c67.417-67.244 95.545-158.591 84.090-245.013l321.446-320.62zM221.793 625.815c36.418-36.325 94.873-36.913 130.563-1.315s35.099 93.903-1.319 130.227c-36.418 36.325-94.873 36.913-130.563 1.315s-35.099-93.903 1.319-130.227z" />
<glyph unicode="&#xe921;" glyph-name="log" data-tags="log" d="M256 608h640v-64h-640v64zM256 352h224v-64h-224v64zM256 480h448v-64h-448v64zM256 224h448v-64h-448v64zM256 96h576v-64h-576v64zM256 736h320v-64h-320v64zM256 864h416v-64h-416v64zM64 864h128v-64h-128v64zM64 736h128v-64h-128v64zM64 608h128v-64h-128v64zM64 480h128v-64h-128v64zM64 352h128v-64h-128v64zM64 224h128v-64h-128v64zM64 96h128v-64h-128v64z" />
<glyph unicode="&#xe922;" glyph-name="pagemap" data-tags="pagemap" d="M304 416l55.467-64h-127.467l-136-320h832l-138.056 320h-125.411l55.467 64h109.651l194.349-448h-1024l192 448h112zM644.6 329l59.4-297h-32l-53.4 267 26 30zM405.4 299l-53.4-267h-32l59.4 297 26-30zM704 672c0 106.039-85.961 192-192 192s-192-85.961-192-192c0-64.962 63.246-171.992 192-313.12 128.754 141.128 192 248.158 192 313.12zM512 265.412c-170.667 176.802-256 312.332-256 406.588 0 141.385 114.615 256 256 256s256-114.615 256-256c0-94.257-85.333-229.786-256-406.588z" />
<glyph unicode="&#xe923;" glyph-name="permissions" data-tags="permissions" d="M0 896h352l96-128h576v-768h-1024v896zM64 832v-768h896v640h-538.51l-96 128h-261.49zM320 388.923l45.176 44.308 90.353-88.615 203.294 199.385 45.176-44.308-248.471-243.692-135.529 132.923z" />
<glyph unicode="&#xe924;" glyph-name="processes" data-tags="processes" d="M928 421.309c-3.332-0.559-6.679-1.075-10.040-1.548l-21.96-131.762h-64l-21.96 131.762c-31.18 4.385-61.157 12.514-89.464 23.919l-84.863-103.085-55.426 32 46.874 125.12c-24.353 19.107-46.339 41.094-65.446 65.446l-125.12-46.874-32 55.426 103.085 84.863c-11.405 28.306-19.534 58.284-23.919 89.464l-131.762 21.96v64l131.762 21.96c0.473 3.361 0.989 6.708 1.548 10.040h-389.309v-192h32l21.799-130.793c29.88-3.12 58.995-8.81 87.121-16.845l69.158 113.023 59.34-23.975-28.771-129.374c28.879-15.406 56.109-33.499 81.355-53.945l107.919 77.085 45.255-45.255-77.085-107.919c20.446-25.246 38.539-52.475 53.945-81.355l129.374 28.771 23.975-59.34-113.023-69.158c8.035-28.126 13.725-57.241 16.845-87.121l130.793-21.799v-32h192v389.309zM928 486.401v377.599h-377.599c-4.198-20.679-6.401-42.082-6.401-64 0-176.731 143.269-320 320-320 21.918 0 43.321 2.204 64 6.401zM544 32c0 247.424-200.576 448-448 448v-448h448c0-21.729-1.547-43.097-4.537-64h-507.463v960h960v-960h-452.537z" />
<glyph unicode="&#xe925;" glyph-name="registration" data-tags="registration" d="M416 608l-64.322-64h-287.678v-480h768v320l64 64v-448h-896v608h416zM503.041 284.203l430.12 430.12-90.839 90.839-430.12-430.12-15.897-106.735 106.735 15.897zM842.323 896l181.677-181.677-490.529-490.529-213.471-31.794 31.794 213.471 490.529 490.529z" />
<glyph unicode="&#xe926;" glyph-name="temp" data-tags="temp" d="M668.799 800h99.201v-64h-96v-64h96v-64h-96v-64h96v-64h-96v-131.233c39.59-40.401 64-95.734 64-156.767 0-123.712-100.288-224-224-224s-224 100.288-224 224c0 61.034 24.41 116.366 64 156.767v419.233c0 88.366 71.634 160 160 160 77.407 0 141.975-54.968 156.799-128zM416 320.012c-38.862-29.191-64-75.666-64-128.012 0-88.366 71.634-160 160-160s160 71.634 160 160c0 52.346-25.138 98.821-64 128.012v447.988c0 53.019-42.981 96-96 96s-96-42.981-96-96v-447.988zM480 282.537v293.463h64v-293.463c37.286-13.179 64-48.738 64-90.537 0-53.019-42.981-96-96-96s-96 42.981-96 96c0 41.799 26.714 77.359 64 90.537z" />
<glyph unicode="&#xe927;" glyph-name="update" data-tags="update" d="M32 928h960v-960h-960v960zM96 864v-832h832v832h-832zM640 32h-256v355.368h-128l256 252.632 256-252.632h-128v-355.368z" />
<glyph unicode="&#xe928;" glyph-name="vars" data-tags="vars" d="M32 928h960v-960h-960v960zM96 864v-832h832v832h-832zM360.142 319.584v83.948c0 14.545-8.451 23.273-22.818 23.273h-17.325v42.805h17.325c14.367 0 22.818 8.727 22.818 22.857v83.948c0 38.234 25.776 63.584 64.228 63.584h30.424v-42.805h-21.127c-14.789 0-23.24-8.727-23.24-23.273v-69.818c0-26.182-12.676-46.545-32.959-56.104 20.282-9.558 32.959-29.922 32.959-56.104v-69.818c0-14.545 8.451-23.273 23.24-23.273h21.127v-42.805h-30.424c-38.452 0-64.228 25.351-64.228 63.584zM663.858 576.416v-83.948c0-14.13 8.451-22.857 22.818-22.857h17.325v-43.221h-17.325c-14.367 0-22.818-8.727-22.818-22.857v-83.948c0-38.234-25.776-63.584-64.228-63.584h-30.424v42.805h21.127c14.789 0 23.24 8.727 23.24 23.273v69.818c0 26.182 12.676 46.545 32.959 56.104-20.282 9.558-32.959 29.922-32.959 56.104v69.818c0 14.545-8.451 23.273-23.24 23.273h-21.127v42.805h30.424c38.452 0 64.228-25.351 64.228-63.584z" />
<glyph unicode="&#xe929;" glyph-name="nvme" data-tags="nvme" d="M686.83 864h-349.66l-241.17-896h832l-241.17 896zM288 928h448l256-960h-960l256 960zM720.119 46.005l12.355-78.005h32.399l-19.216 121.324-4.384 27.328c-2.197 10.348-8.201 18.902-21.912 17.748s-9.775-19.325-9.429-22.4l10.187-65.995zM812.228-32h-126.589l-6.776 64.473-9.742 91.057c-2.909 25.906 14.906 49.266 40.812 52.175 1.166 0.131 3.243 0.229 6.229 0.295 30.224 0 56.328-21.144 62.605-50.709l6.219-29.291h0.036l27.207-128zM207.45 96l-27.207-128h-52.242l32 128h47.45zM240.164 96h40.421l-20.273-128h-47.355l27.207 128zM312.984 96h40.015l-13.453-128h-46.835l20.273 128zM385.176 96h39.751l-6.708-128h-46.497l13.453 128zM456.971 96h39.621v-128h-46.329l6.708 128zM528.592 96h39.621l6.708-128h-46.329v128zM600.257 96h39.751l13.453-128h-46.497l-6.708 128zM817.735 96h46.265l32-128h-51.058l-27.207 128zM707.2 640h-390.4l51.2 192h288l51.2-192zM715.733 608l68.267-256h-544l68.267 256h407.467z" />
<glyph unicode="&#xe92a;" glyph-name="folder" data-tags="folder" d="M0 896h352l96-128h576v-768h-1024v896zM64 832v-768h896v640h-538.51l-96 128h-261.49z" />
<glyph unicode="&#xe92b;" glyph-name="usb" data-tags="usb" d="M832 160v-192h-640v192h-32c-35.346 0-64 28.654-64 64v288c0 13.481 4.168 25.988 11.285 36.303l124.827 318.707c14.408 36.786 49.881 60.99 89.388 60.99h379.021c39.322 0 74.668-23.98 89.202-60.517l126.929-319.090c7.155-10.333 11.348-22.873 11.348-36.393v-288c0-35.346-28.654-64-64-64h-32zM823.706 224h8.294c17.673 0 32 14.327 32 32v224c0 17.673-14.327 32-32 32h-640c-17.673 0-32-14.327-32-32v-224c0-17.673 14.327-32 32-32h8l56 224h509.651l58.056-224zM841.554 576l-99.49 247.842c-9.738 24.26-33.252 40.158-59.393 40.158h-343.14c-26.271 0-49.873-16.054-59.525-40.488l-97.767-247.512h659.314zM256 192h512l-42.056 192h-429.944l-40-192zM256 128v-96h512v96h-512zM384 320h70.4l-6.4-64h-80l16 64zM569.6 320h70.4l16-64h-80l-6.4 64z" />
<glyph unicode="&#xe92c;" glyph-name="motherboard" data-tags="motherboard" d="M32 928h960v-960h-960v960zM96 864v-832h832v832h-832zM384 672v-128h128v128h-128zM352 704h192v-192h-192v192zM736 224v-96h64v96h-64zM704 256h128v-160h-128v160zM640 832h32v-480h-32v480zM704 832h32v-480h-32v480zM768 832h32v-480h-32v480zM832 832h32v-480h-32v480zM192 128h352v-32h-352v32zM192 320h352v-32h-352v32zM192 256h96v-32h-96v32zM192 192h96v-32h-96v32zM96 512h64v-64h-64v64zM96 800h64v-64h-64v64zM96 704h64v-64h-64v64zM96 608h64v-64h-64v64z" />
<glyph unicode="&#xe92d;" glyph-name="u-circle" data-tags="circle" d="M1024 448c0-282.77-229.23-512-512-512s-512 229.23-512 512c0 282.77 229.23 512 512 512s512-229.23 512-512z" />
<glyph unicode="&#xe92e;" glyph-name="u-compact" data-tags="compact" d="M0 960h448v-448h-448v448zM0 384h448v-448h-448v448zM576 960h448v-448h-448v448zM576 384h448v-448h-448v448z" />
<glyph unicode="&#xe92f;" glyph-name="u-delete" data-tags="delete" d="M919.294 945.803l90.51-90.51-407.318-407.282 407.318-407.305-90.51-90.51-407.305 407.318-407.282-407.318-90.51 90.51 407.296 407.305-407.296 407.282 90.51 90.51 407.282-407.296 407.305 407.296z" />
<glyph unicode="&#xe930;" glyph-name="u-display" data-tags="display" d="M128 64h768v-128h-768v128zM704-64h-384v384h384v-384zM448 64h128v128h-128v-128zM1024 192h-1024v768h1024v-768zM128 320h768v512h-768v-512z" />
<glyph unicode="&#xe931;" glyph-name="u-edit" data-tags="edit" d="M343.188 419.783l191.941 193.766-303.519 306.405c151.348 72.987 338.111 46.206 463.47-80.345s151.888-315.089 79.588-467.877l249.332-251.703v-184.030h-201.585l-239.688 241.967c-151.348-72.987-338.111-46.206-463.47 80.345s-151.888 315.089-79.588 467.877l303.519-306.405z" />
<glyph unicode="&#xe932;" glyph-name="u-full" data-tags="full" d="M1024 960v-448h-1024v448h1024zM1024 384v-448h-1024v448h1024zM960 320h-896v-320h896v320z" />
<glyph unicode="&#xe933;" glyph-name="u-half" data-tags="half" d="M0 960h448v-1024h-448v1024zM576 960h448v-1024h-448v1024zM640 896v-896h320v896h-320z" />
<glyph unicode="&#xe934;" glyph-name="u-help" data-tags="help" d="M512-64c-282.77 0-512 229.23-512 512s229.23 512 512 512c282.77 0 512-229.23 512-512s-229.23-512-512-512zM448 256v-128.128h128v128.128h-128zM448 320c32 0 96 0 128 0 0 128 128 160 128 256 0 32 0 192-192 192-128 0-192-64-192-192h128c0 42.667 21.333 64 64 64 64 0 64-64 64-64 0-64-129.411-96-128-256z" />
<glyph unicode="&#xe935;" glyph-name="u-list" data-tags="list" d="M0 864h1024v-192h-1024v192zM0 544h1024v-192h-1024v192zM0 224h1024v-192h-1024v192z" />
<glyph unicode="&#xe936;" glyph-name="u-log" data-tags="log" d="M0 896h704v-128h-704v128zM0 704h832v-128h-832v128zM0 512h576v-128h-576v128zM0 320h960v-128h-960v128zM0 128h704v-128h-704v128z" />
<glyph unicode="&#xe937;" glyph-name="u-logout" data-tags="logout" d="M448 576h256v256l320-384-320-384v256h-256v-128h128v-256h-576v1024h576v-256h-128v-128zM448 576v256h-320v-768h320v256h-192v256h192z" />
<glyph unicode="&#xe938;" glyph-name="u-tab" data-tags="new-window" d="M896 742.432l-434.745-434.745-90.51 90.51 433.803 433.803h-228.548v128h448v-448h-128v230.432zM768 384h128v-448h-896v896h448v-128h-320v-640h640v320z" />
<glyph unicode="&#xe939;" glyph-name="u-pause" data-tags="pause" d="M0 960h384v-1024h-384v1024zM640 960h384v-1024h-384v1024z" />
<glyph unicode="&#xe93a;" glyph-name="u-play" data-tags="play" d="M0 960l1024-512-1024-512z" />
<glyph unicode="&#xe93b;" glyph-name="u-polygon" data-tags="polygon" d="M512 960l512-384-192-640h-640l-192 640z" />
<glyph unicode="&#xe93c;" glyph-name="u-restart" data-tags="restart" d="M96.713 960l104.891-105.126c86.129 65.783 193.748 104.857 310.493 104.857 282.77 0 512-229.23 512-512s-229.23-512-512-512c-263.593 0-480.663 199.193-508.892 455.264l129.056-0.009c27.427-185.17 187.039-327.255 379.836-327.255 212.077 0 384 171.923 384 384s-171.923 384-384 384c-81.413 0-156.908-25.335-219.032-68.552l90.934-91.178-384-160 96.713 448z" />
<glyph unicode="&#xe93d;" glyph-name="u-square" data-tags="square" d="M0 960h1024v-1024h-1024v1024z" />
<glyph unicode="&#xe93e;" glyph-name="u-chat" data-tags="support" d="M1024 960v-832h-192v-192l-256 192h-576v832h1024zM896 264.258v565.677h-768v-565.677h768zM256 704h448v-64h-448v64zM256 576h512v-64h-512v64zM256 448h384v-64h-384v64z" />
<glyph unicode="&#xe93f;" glyph-name="u-terminal" data-tags="terminal" d="M320 512l-320 256v192l512-416v-64l-512-416v192l320 256zM448 128h576v-192h-576v192z" />
<glyph unicode="&#xe940;" glyph-name="u-third" data-tags="third" d="M0 960h256v-1024h-256v1024zM384 960h256v-1024h-256v1024zM448 896v-896h128v896h-128zM768 960h256v-1024h-256v1024zM832 896v-896h128v896h-128z" />
<glyph unicode="&#xe941;" glyph-name="u-triangle" data-tags="triangle" d="M512 960l512-1024h-1024z" />
<glyph unicode="&#xe942;" glyph-name="apps" data-tags="appstore" d="M32 928h960v-960h-960v960zM96 864v-832h832v832h-832zM768 800h96v-64h-96v64zM640 800h96v-64h-96v64zM512 800h96v-64h-96v64zM160 640h192v-160h-192v160zM160 448h192v-160h-192v160zM160 256h192v-160h-192v160zM416 640h192v-160h-192v160zM416 448h192v-160h-192v160zM416 256h192v-160h-192v160zM672 640h192v-160h-192v160zM672 448h192v-160h-192v160zM672 256h192v-160h-192v160z" />
<glyph unicode="&#xe943;" glyph-name="dashboard" data-tags="dashboard" d="M32 352c0 265.097 214.903 480 480 480s480-214.903 480-480c0-109.32-34.46-207.302-96-288-119.187 43.229-249.884 64-384 64s-264.813-20.771-384-64c-61.54 80.698-96 178.68-96 288zM512 192c125.645 0 246.736-17.352 358.438-51.927 37.792 62.802 57.562 134.413 57.562 211.927 0 229.75-186.25 416-416 416s-416-186.25-416-416c0-77.514 19.77-149.125 57.562-211.927 111.702 34.575 232.793 51.927 358.438 51.927zM560 236.862c-30.611-17.673-69.753-7.185-87.426 23.426-11.782 20.407-57.307 141.925-136.574 364.554 153.168-179.962 235.644-280.147 247.426-300.554 17.673-30.611 7.185-69.753-23.426-87.426zM496 752h32v-64h-32v64zM112 336v32h64v-32h-64zM217.844 623.529l22.627 22.627 45.255-45.255-22.627-22.627-45.255 45.255zM783.529 646.156l22.627-22.627-45.255-45.255-22.627 22.627 45.255 45.255zM911.975 368.061v-32h-64v32h64z" />
<glyph unicode="&#xe944;" glyph-name="plugins" data-tags="plugins" d="M96 864v-832h832v832h-832zM32 928h960v-960h-960v960zM384 353.286c25.9 33.725 56.645 34.82 92.235 3.285 77.39-68.571 227.765-45.714 227.765 91.429s-144.941 160-227.765 91.429c-36.915-30.563-67.66-30.476-92.235 0.261v324.311h64v-265.861c34.351 28.613 80.587 41.861 131.441 41.861 106.039 0 192-85.961 192-192s-85.961-192-192-192c-50.854 0-97.090 13.248-131.441 41.861v-265.861h-64v321.286z" />
<glyph unicode="&#xe945;" glyph-name="users" data-tags="users" d="M868.431 183.534c27.011 3.852 51.922 9.017 70.846 15.109 20.122 6.477 34.638 24.79 36.723 46.576-0.067 73.507-3.982 131.27-11.518 172.762-8.054 44.346-20.927 70.493-40.444 82.752-29.331-27.009-63.213-46.054-100.6-55.514-7.921 16.013-17.295 30.604-28.384 43.202 47.159 7.162 85.829 32.776 115.498 67.389 61.248-9.639 88.866-61.575 101.157-129.252 8.194-45.118 12.291-106.208 12.291-183.268-2.939-41.872-30.689-77.678-70.015-90.337-23.871-7.684-53.688-13.594-84.493-17.728-0.21 16.769-0.564 32.872-1.061 48.31zM311.73 610.785c5.892-15.95 12.907-31.544 21.075-46.371-20.89-16.589-46.411-26.813-76.833-26.813-104.209 0-150.918 119.969-150.918 204.8s67.568 153.6 150.918 153.6c28.579 0 55.302-8.085 78.083-22.13-9.854-12.604-18.345-26.286-25.255-40.834-15.463 9.507-33.544 14.964-52.828 14.964-56.649 0-102.918-47.091-102.918-105.6 0-83.347 44.697-156.8 102.918-156.8 20.781 0 39.84 9.358 55.758 25.185zM204.569 444.231c-38.902 9.060-74.099 28.421-104.438 56.293-19.247-12.61-32.537-39.385-40.73-82.832-7.442-39.463-11.336-97.461-11.401-173.269 2.077-21.706 16.498-39.974 36.522-46.511 17.679-5.772 41.23-10.695 66.992-14.404-0.009-15.519 0.298-31.713 0.922-48.583-30.404 4.028-59.704 9.814-82.81 17.357-39.133 12.775-66.699 48.49-69.627 90.211 0 79.481 4.078 140.845 12.233 184.094 12.233 64.873 39.9 119.6 101.136 129.249 30.249-35.299 69.856-61.244 118.28-67.812-10.453-12.767-19.282-27.56-27.080-43.793zM715.188 833.063c-6.912 14.547-15.404 28.227-25.26 40.83 22.772 14.031 49.482 22.107 78.045 22.107 83.35 0 150.918-68.769 150.918-153.6s-46.709-204.8-150.918-204.8c-30.403 0-55.912 10.211-76.794 26.783 8.169 14.824 15.185 30.414 21.077 46.362 15.909-15.802 34.953-25.144 55.717-25.144 58.221 0 102.918 73.453 102.918 156.8 0 58.509-46.269 105.6-102.918 105.6-19.266 0-37.331-5.447-52.785-14.937zM512 544c72.387 0 128 89.796 128 192 0 70.692-57.308 128-128 128s-128-57.308-128-128c0-102.204 55.613-192 128-192zM512 480c-132.576 0-192 149.961-192 256s85.961 192 192 192c106.039 0 192-85.961 192-192s-59.424-256-192-256zM512 352c-75.176 0-142.331 27.431-197.327 76.093-16.705-14.358-30.473-44.016-50.678-103.102-0.759-2.219-0.759-2.219-1.522-4.454-13.976-40.895-18.649-109.996-12.287-204.861 1.863-26.076 19.397-48.397 44.29-56.382 51.063-16.379 141.016-27.294 214.584-27.294 74.611 0 166.58 11.223 220.288 28.211 25.015 7.912 42.668 30.291 44.537 56.461 6.34 88.758 1.635 157.69-13.029 205.901-18.953 62.309-32.33 92.184-50.67 106.283-55.155-49.138-122.618-76.855-198.185-76.855zM822.085 341.197c17.276-56.798 22.489-133.159 15.637-229.085-3.739-52.34-39.043-97.097-89.074-112.921-65.741-20.794-166.937-31.19-239.588-31.19-71.669 0-171.046 10.117-234.131 30.352-49.786 15.969-84.855 60.612-88.58 112.764-6.899 102.864-1.711 179.569 15.563 230.117 25.912 75.822 50.761 149.5 128.667 161.561 44.742-51.3 105.576-86.794 181.421-86.794 75.829 0 136.653 35.48 181.393 86.762 77.92-12.049 102.778-76.369 128.693-161.565z" />
<glyph unicode="&#xe946;" glyph-name="recycle" data-tags="recycle" d="M64.248 861.85c-0.165 0.714-0.248 1.431-0.248 2.15 0 35.346 200.576 64 448 64s448-28.654 448-64c0-0.72-0.083-1.436-0.248-2.15l-95.752-829.85c0-35.346-157.596-64-352-64s-352 28.654-352 64l-95.752 829.85zM461.723 816.605c16.759-0.403 33.518-0.605 50.277-0.605s33.518 0.202 50.277 0.605c100.574 2.432 201.149 12.149 301.723 29.155-96 16.427-213.333 24.64-352 24.64s-256-8.213-352-24.64c100.574-17.006 201.149-26.724 301.723-29.153zM220.867 62.837c12.798-4.459 31.122-9.022 53.681-13.124 61.496-11.181 146.431-17.713 237.453-17.713s175.957 6.532 237.453 17.713c22.558 4.101 40.883 8.665 53.681 13.124l83.273 721.7c-124.751-21.687-249.566-32.537-374.407-32.537s-249.656 10.85-374.407 32.537l83.273-721.7zM345.84 394l-24.56 15.776 86.384 9.888 30.784-80.368-24.288 15.376c-23.712-38.432-45.488-83.44-31.664-126.336-40.048 33.952-62.496 60.048-62.496 91.568 0 22.752 14.784 53.424 25.84 74.096zM410.752 304h85.248v-80h-78.944c-8.88 0-16.528 6.192-18.352 14.864-3.984 18.944-0.16 50.24 12.048 65.136zM582.048 221.184v-29.184l-53.92 68.208 53.92 68.512v-28.752c45.168 0.080 92.768 5.328 121.952 39.664-7.744-51.936-18.096-84.768-44.88-101.376-19.344-11.968-53.664-15.568-77.072-17.072zM624.8 323.792l-44.912 72.432 68 42.144 41.6-67.072c4.672-7.536 3.44-17.296-2.976-23.424-14-13.376-42.624-26.608-61.712-24.080zM609.808 508.768l25.76 13.744-33.552-80.224-85.168 12.352 25.264 13.696c-21.952 39.472-50.592 80.448-94.8 89.328 30.464 11.376 55.008 18.336 75.792 18.336 35.808 0 56.64-20.24 86.704-67.232zM499.584 496.048l-41.616-74.4-69.824 39.056 38.528 68.912c4.336 7.744 13.472 11.392 21.936 8.752 18.48-5.76 43.936-24.4 50.976-42.32z" />
<glyph unicode="&#xe947;" glyph-name="u-change" data-tags="change" d="M768 384h128v-448h-896v896h448v-128h-320v-640h640v320zM934.368 733.726l-135.764 135.765 90.51 90.51 135.764-135.765-90.51-90.51zM889.113 688.471l-343.937-343.937-176.494-40.729 40.729 176.494 343.937 343.937 135.765-135.765z" />
<glyph unicode="&#xe948;" glyph-name="audio" data-tags="audio" d="M512-32c-265.097 0-480 214.903-480 480s214.903 480 480 480c265.097 0 480-214.903 480-480s-214.903-480-480-480zM512 32c229.75 0 416 186.25 416 416s-186.25 416-416 416c-229.75 0-416-186.25-416-416s186.25-416 416-416zM392.348 365.698v279.225l311.652 59.077v-354.462h-0.050c1.218-34.099-19.684-73.552-54.767-97.899-44.87-31.139-95.945-25.777-114.080 11.978s3.54 93.604 48.41 124.744c27.918 19.375 58.237 24.619 81.53 16.722v180.763l-233.739-39.385v-236.308h-0.050c1.218-34.099-19.684-73.552-54.767-97.899-44.87-31.139-95.945-25.777-114.080 11.978s3.54 93.604 48.41 124.744c27.918 19.375 58.237 24.619 81.53 16.722z" />
<glyph unicode="&#xe949;" glyph-name="cloud-services" data-tags="cloud-connect" d="M496 864c-127.175 0-236.596-88.017-264.959-210.182l-9.418-40.565-40.903-7.822c-67.257-12.861-116.72-72.051-116.72-141.431 0-79.529 64.471-144 144-144h576c97.202 0 176 78.798 176 176 0 92.847-72.157 169.589-164.268 175.618l-37.576 2.459-16.1 34.041c-44.651 94.41-139.783 155.882-246.056 155.882zM496 928c134.239 0 250.092-78.722 303.912-192.519 125.13-8.19 224.088-112.279 224.088-239.481 0-132.548-107.452-240-240-240h-576c-114.875 0-208 93.125-208 208 0 101.439 72.615 185.919 168.699 204.292 34.55 148.814 167.975 259.708 327.301 259.708zM480 224h64v-160h96v-64h-256v64h96v160zM704 64h64v-64h-64v64zM128 64h64v-64h-64v64zM832 64h64v-64h-64v64zM256 64h64v-64h-64v64z" />
<glyph unicode="&#xe94a;" glyph-name="lighting" data-tags="lighting" d="M224 160c-39.273 249.436-160 289.641-160 447.179s104.727 288.821 288 288.821c183.273 0 288-129.309 288-288.821 0-157.538-120.727-197.744-160-447.179h-256zM277.013 224h149.974c15.535 69.635 38.442 127.636 70.574 187.297 8.573 15.918 41.461 72.924 48.412 86.147 21.205 40.338 30.027 70.484 30.027 109.735 0 133.935-85.364 224.821-224 224.821-137.927 0-224-92.073-224-224.821 0-39.251 8.823-69.398 30.027-109.735 6.951-13.223 39.839-70.229 48.412-86.147 32.132-59.661 55.039-117.662 70.574-187.297zM224 128h256v-64h-256v64zM224 32h256l-48-64h-160l-48 64zM708.398 566.109c2.572-0.449 5.144-0.947 7.714-1.493l36.957 65.421 33.829-12.313-13.741-73.871c15.637-8.316 29.919-18.381 42.687-29.854l64.689 38.162 23.14-27.578-48.848-57.118c9.196-14.785 16.588-30.636 22.003-47.185l75.154 0.705 6.251-35.453-70.815-25.025c0.582-17.156-0.888-34.566-4.569-51.89l65.421-36.957-12.313-33.829-73.871 13.741c-8.316-15.637-18.381-29.919-29.854-42.687l38.162-64.689-27.578-23.14-57.118 48.848c-14.785-9.196-30.636-16.588-47.185-22.003l0.705-75.154-35.453-6.251-25.025 70.815c-17.156-0.582-34.566 0.888-51.89 4.569l-36.957-65.421-33.829 12.313 13.741 73.871c-7.666 4.077-15.006 8.574-22.002 13.451l28.447 69.086c13.111-11.559 28.562-20.91 45.979-27.249 74.733-27.201 157.366 11.332 184.567 86.065s-11.332 157.366-86.065 184.567c-13.459 4.899-27.174 7.665-40.775 8.473l28.441 69.071z" />
<glyph unicode="&#xe94b;" glyph-name="picture" data-tags="picture" d="M224 704v-640h704v640h-704zM160 768h832v-768h-832v768zM32 128v768h832v-64h-768v-704h-64zM598.696 295.534c2.28-44.482 11.939-77.658 28.296-99.693 7.347-9.897 5.361-23.937-4.434-31.36s-23.692-5.417-31.038 4.48c-22.696 30.575-34.867 73.094-37.252 127.376-6.763-5.685-14.033-10.796-21.812-15.333-42.415-24.742-91.901-27.743-148.455-9.003 10.232 49.302 31.059 86.635 62.483 112-31.424 25.365-52.252 62.698-62.483 112 47.375 15.698 89.789 16.141 127.242 1.327 6.029 40.178 27.615 77.069 64.758 110.673 37.143-33.604 58.729-70.494 64.758-110.673 37.453 14.814 79.867 14.371 127.242-1.327-10.232-49.302-31.059-86.635-62.483-112 31.424-25.365 52.252-62.698 62.483-112-56.555-18.74-106.040-15.739-148.455 9.003-7.41 4.323-14.36 9.166-20.849 14.53z" />
<glyph unicode="&#xe94c;" glyph-name="preclear" data-tags="preclear" d="M1024-32h-1024v384h1024v-384zM64 32h896v256h-144c21.333 16.168 32 37.502 32 64-32 0-608 0-640 0 0-18.414-21.333-39.747-64-64h-80v-256zM128 192h192v-64h-192v64zM565.581 288h-140.651c23.442 24.253 0 72.758 0 72.758s0-36.379-46.884-72.758h-154.047c62.512 32.337 93.767 113.179 93.767 242.526 70.326 0 435.349 0 482.233 0 0-145.516-31.256-226.358-93.767-242.526h-102.292c19.18 16.168 8.524 48.505 8.524 48.505s-8.524-24.253-46.884-48.505zM317.767 570.947v80.842c105.891-16.032 166.17-9.295 180.837 20.211 22.001 44.259-60.279 181.895-20.093 242.526s120.558 60.632 160.744 0c40.186-60.632-40.186-202.105-20.093-242.526 13.395-26.947 73.674-33.684 180.837-20.211v-80.842h-482.233z" />
<glyph unicode="&#xe94d;" glyph-name="remote-access" data-tags="remote-access" d="M160 32h704v-64h-704v64zM704-32h-384v288h384v-288zM384 32h256v160h-256v-160zM1024 192h-1024v736h1024v-736zM64 256h896v608h-896v-608zM500.571 768c75.91 0 143.861-43.392 175.754-110.034l11.5-24.029 26.84-1.736c65.794-4.256 117.335-58.426 117.335-123.965 0-68.613-56.284-124.235-125.714-124.235h-411.429c-56.806 0-102.857 45.509-102.857 101.647 0 48.974 35.33 90.755 83.371 99.834l29.216 5.521 6.727 28.634c20.259 86.234 98.417 148.364 189.256 148.364z" />
<glyph unicode="&#xe94e;" glyph-name="video" data-tags="video" d="M512 928c265.097 0 480-214.903 480-480s-214.903-480-480-480c-265.097 0-480 214.903-480 480s214.903 480 480 480zM512 864c-229.75 0-416-186.25-416-416s186.25-416 416-416c229.75 0 416 186.25 416 416s-186.25 416-416 416zM384 640l384-192-384-192v384z" />
<glyph unicode="&#xe94f;" glyph-name="u-check" data-tags="check" d="M0 448l128 128 256-256 512 512 128-128-640-640z" />
<glyph unicode="&#xe950;" glyph-name="u-download" data-tags="download" d="M128 320v-256h768v256h128v-384h-1024v384h128zM576 960v-448h192l-256-320-256 320h192v448h128z" />
<glyph unicode="&#xe951;" glyph-name="u-globe" data-tags="globe" d="M560.811 611.371c-1.493 2.816 14.592 4.352 17.451 4.352 3.157-0.384-8.363-19.285-17.451-4.352zM468.992 742.443l4.608 1.323c2.731-2.347-3.072-4.053-2.176-5.803 3.669-6.613 0.896-10.581 0.341-14.165-0.597-3.627-4.437-2.048-6.357-3.968-2.261-2.816 11.008-3.2 11.179-3.627 0.469-1.408-16-3.797-12.971-7.296 4.096-5.803 35.157 8.32 30.208 7.509 9.6 4.821 1.237 5.333-4.139 8.107-1.835 9.173-3.371 23.339-9.088 29.013l3.755 4.352c-8.789 12.757-15.36-15.445-15.36-15.445v0zM1024 448c0-282.752-229.248-512-512-512-282.795 0-512 229.248-512 512s229.205 512 512 512c282.752 0 512-229.248 512-512zM669.44 677.163c-0.256 6.229-8.107 12.117-16.299 1.323-5.76-7.424-4.736-18.731-7.851-23.765-4.437-7.467 24.192-14.464 24.192-7.424 1.067 11.819 31.232 2.688 37.12 1.067 10.581-2.944 27.435 9.643 9.003 16.256-15.147 5.547-23.125 11.477-24.491 22.315 0 0 8.021 7.509 4.523 7.083-9.301-1.152-26.197-33.536-26.197-16.853v0zM938.069 448c0 44.16-7.552 88.747-15.232 112.299-2.475 7.424-8.064 13.312-15.317 16.128-10.923 4.267-57.045-25.472-64-10.837-4.565 9.771-13.824-6.229-24.405-0.341-5.12 2.816-19.371 21.973-25.813 19.627-13.184-4.736 20.224-41.131 29.355-45.909 8.576 6.485 36.352 19.84 42.325 1.621 11.435-34.304-31.445-71.893-53.376-91.691-32.768-29.611-26.624 19.157-48.939 36.352-11.733 9.003-11.605 28.16-23.467 34.773-5.291 2.987-29.568 30.933-29.355 34.688l-0.725-7.083c-4.011-3.029-12.544 11.435-13.44 13.696 0-12.587 20.48-32.64 27.264-42.709 11.563-17.28 17.749-42.453 31.915-56.576 7.595-7.595 36.608-38.997 44.16-38.315 8.235 0.725 34.261 19.541 38.869 18.475 27.477-6.485-64.683-136.747-73.429-152.875-7.211-13.525 5.888-46.976 4.821-62.976-1.237-18.475-15.787-24.448-29.568-34.517-14.763-10.795-11.307-31.787-23.723-39.467-22.059-13.568-37.931-57.728-69.248-57.515-9.216 0.043-48.64-15.36-53.803-0.299-4.011 10.923-9.387 19.2-15.061 29.995-5.547 10.581-0.64 21.547-7.381 30.891-4.651 6.485-20.267 21.205-21.675 28.885-0.085 6.613 4.992 26.709 11.947 30.208 9.771 4.992 1.877 19.541 0.683 27.989-2.048 15.104-11.392 27.563-22.613 36.309-16.597 12.757-8.021 22.912-4.139 41.131 0 8.704-5.291 20.139-16.981 16.725-24.064-6.997-16.768 18.773-34.304 17.621-12.629-0.896-22.955-8.917-34.688-12.459-14.763-4.437-29.867 3.499-44.459 5.333-60.032 7.595-79.616 76.203-63.957 125.696 1.579 8.107-4.864 23.125-2.048 29.397 6.741 15.019 20.48 31.872 32.512 43.264 6.741 6.4 15.403 4.779 23.339 9.771 12.245 7.723 12.416 23.595 24.405 33.323 17.067 13.867 40.363 13.568 62.635 16.555 11.861 1.579 57.003 11.349 64.128 2.56 0-1.621 8.149-25.771-0.811-24.405 18.475-0.981 44.8-31.957 62.336-24.704 9.003 3.755 5.717 31.403 24.192 18.048 11.179-8.021 61.269-11.605 71.68-2.944 6.4 5.291 9.984 39.68 2.219 43.563 4.949-4.907-26.069-5.291-28.971-4.181-5.12 1.877-9.899-4.864-18.133-1.067 4.949-2.347-27.563 15.104-9.301 28.459-7.637-5.589-14.763 1.579-22.997-4.565-5.675-4.608 2.645-7.68-5.461-11.691-12.885-6.528-22.613 22.4-27.477 25.685-4.949 3.243-43.264 30.123-32.853 12.587l33.664-33.493c-1.664-1.067-8.832 12.203-8.832 2.517 2.261 5.76 0.853-24.704-4.437-14.805-2.347 3.797 3.84 5.931 0.256 11.435 0 3.627-9.728 7.168-11.605 9.643-5.333 6.613-19.499 21.205-27.179 24.704-2.133 0.981-32.597-3.712-35.157-4.693-2.987-4.181-5.547-8.576-7.637-13.269-6.315-2.347-12.245-5.376-17.877-9.131l-6.699-15.061c-2.901-2.603-32.64-12.416-32.811-12.8 1.237 3.2-20.779 7.296-19.328 13.696 1.621 7.040 9.088 29.013 7.168 37.035-2.048 8.405 45.824-12.117 48.896 10.027 1.237 9.6 1.963 20.779-13.355 22.4 2.901-0.341 29.653 10.496 34.091 15.36 6.229 7.168 20.523 18.859 30.891 18.859 12.117 0 9.515 17.621 15.104 26.24 5.589-2.261-2.987-16.043 3.712-21.632-0.427 4.395 18.987-2.432 20.864-1.408 4.437 2.304 29.184 0.939 25.344 12.544-4.267 11.819 2.176 8.32 7.723 10.795-0.939-0.384 14.507 26.411 17.152 17.621-1.835 9.045-17.963-3.157-23.595-2.688-13.013 1.024-7.509 22.187-2.603 28.373 3.797 4.907-10.368 10.923-10.539 1.536-0.256-14.037-13.312-26.752-10.283-45.397 4.608-28.117-31.36 6.784-34.517 4.864-11.947-7.253-21.717 9.131-15.531 18.944 6.315 10.027 21.547 9.557 27.819 20.309 4.437 7.595 9.6 16.427 16.427 22.187 22.827 19.157 29.141 3.84 51.883 1.749 22.229-2.048 7.509-5.291 4.437-13.824-2.944-8.107 12.203-11.008 17.451-4.224 2.987 3.925 9.771 13.781 12.715 21.077 3.797 9.472 38.443 8.405 14.251 22.869-15.957 9.515-85.504 28.672-132.096 28.672-10.069 0-17.109-11.221-24.789-17.579-15.189-12.587-54.101-37.291-75.733-29.781-22.144 7.637-69.547-28.16-77.141-28.416-2.773-0.171 0.171 27.051 15.275 29.056-6.528-0.981 53.205 30.165 51.584 36.651-1.963 7.68-119.424-35.072-114.176-43.648 2.517-3.925 12.757-3.925-0.683-12.544-7.68-4.651-15.872-34.176-23.083-34.176-21.547-9.429-22.912 18.56-46.891-17.451l-38.144-15.36c-56.661-60.203-95.872-136.448-110.080-221.141-0.555-3.371 14.251-9.643 16.171-11.947 4.779-5.717 4.779-30.379 7.125-38.443 5.888-20.395 20.437-31.744 31.573-50.304 6.571-11.051 17.493-38.997 14.037-50.603 4.608 7.595 45.653-34.773 53.163-43.605 17.664-20.779 31.275-45.952 2.603-66.517-9.259-6.656 14.080-48.171 2.048-58.368l-15.403-3.968c-15.189-9.344-8.32-32.256 0.896-41.899 77.568-81.109 186.88-131.712 308.053-131.712 235.392 0 426.197 190.805 426.197 426.197v0zM447.104 719.232c5.333 2.347 12.501 2.261 13.269 9.387 0.64 6.315 1.877 1.963 3.413 4.267 1.493 2.261-2.859 5.888-4.693 6.229-2.731 0.597-4.608-2.944-6.357-4.437l-3.072-0.811-2.901-3.712 0.341-2.048-3.712-4.523c-3.627-3.584 0.085-5.931 3.712-4.352v0z" />
<glyph unicode="&#xe952;" glyph-name="u-info" data-tags="info" d="M512-64c-282.77 0-512 229.23-512 512s229.23 512 512 512c282.77 0 512-229.23 512-512s-229.23-512-512-512zM447.295 768v-128.128h128v128.128h-128zM448 128c32 0 96 0 128 0 0 85.333 0 213.333 0 384h-128c-0.94-149.333-0.94-277.333 0-384z" />
<glyph unicode="&#xe953;" glyph-name="u-link" data-tags="link" d="M303.876 375.64l91.418 91.418c10.12-29.818 27.668-58.64 52.396-83.368 74.981-74.981 187.591-83.938 251.522-20.007l154.343 154.343c63.931 63.931 54.973 176.541-20.007 251.522s-187.591 83.938-251.522 20.007l-26.203-26.203c-46.59 19.282-100.895 25.316-162.914 18.105l85.746 85.746c118.391 118.391 315.671 113.059 440.639-11.909s130.3-322.249 11.909-440.639l-128.619-128.619c-118.391-118.391-315.671-113.059-440.639 11.909-23.65 23.65-43.016 49.891-58.069 77.696zM626.985 428.459c-9.026 30.912-25.947 60.36-50.676 85.089-74.981 74.981-193.349 78.18-264.384 7.146l-128.619-128.619c-71.034-71.034-67.835-189.403 7.146-264.384s193.349-78.18 264.384-7.145l13.341 13.341c46.59-19.282 100.895-25.316 162.914-18.105l-85.746-85.746c-118.391-118.391-315.671-113.059-440.639 11.909s-130.3 322.249-11.909 440.639l128.619 128.619c118.391 118.391 315.671 113.059 440.639-11.909 23.65-23.65 43.016-49.891 58.069-77.696l-93.139-93.139z" />
<glyph unicode="&#xe954;" glyph-name="u-lock-open" data-tags="lock-open" d="M848 469.333h112v-533.333h-896v533.333h672v205.832c0 98.4-100.288 178.168-224 178.168s-224-79.769-224-178.168v-13.832h-112v32c0 147.276 150.432 266.667 336 266.667s336-119.391 336-266.667v-224z" />
<glyph unicode="&#xe955;" glyph-name="u-lock" data-tags="lock" d="M288 469.333h448v205.832c0 98.4-100.288 178.168-224 178.168s-224-79.769-224-178.168v-205.832zM176 469.333v224c0 147.276 150.432 266.667 336 266.667s336-119.391 336-266.667v-224h112v-533.333h-896v533.333h112z" />
<glyph unicode="&#xe956;" glyph-name="u-search" data-tags="search" d="M416 960c229.75 0 416-186.25 416-416 0-68.72-16.663-133.549-46.169-190.665l238.169-238.135v-179.2h-179.2l-238.135 238.169c-57.117-29.506-121.945-46.169-190.665-46.169-229.75 0-416 186.25-416 416s186.25 416 416 416zM416 832c-159.058 0-288-128.942-288-288s128.942-288 288-288c159.058 0 288 128.942 288 288s-128.942 288-288 288z" />
<glyph unicode="&#xe957;" glyph-name="u-sort-down" data-tags="sort-down" d="M64 384h896l-448-448-448 448zM218.51 576h586.981l-293.49 293.49-293.49-293.49zM64 512l448 448 448-448h-896z" />
<glyph unicode="&#xe958;" glyph-name="u-sort-up" data-tags="sort-up" d="M805.49 320h-586.981l293.49-293.49 293.49 293.49zM64 384h896l-448-448-448 448zM64 512l448 448 448-448h-896z" />
<glyph unicode="&#xe959;" glyph-name="u-sort" data-tags="sort" d="M64 384h896l-448-448-448 448zM64 512l448 448 448-448h-896z" />
<glyph unicode="&#xe95a;" glyph-name="u-star" data-tags="star" d="M0 576l357.392 32 154.608 352 160-352 352-32-256-256 64-384-320 224-320-224 64 384z" />
<glyph unicode="&#xe95b;" glyph-name="u-tag" data-tags="tag" d="M0 512v448h448l576-576-448-448-576 576zM224 640c53.019 0 96 42.981 96 96s-42.981 96-96 96c-53.019 0-96-42.981-96-96s42.981-96 96-96zM512 640l-64-64 256-256 64 64-256 256zM384 512l-64-64 192-192 64 64-192 192z" />
<glyph unicode="&#xe95c;" glyph-name="vpn" data-tags="vpn" d="M192 128c0 104.589 0 214.026 0 328.312 0 171.429 128 311.688 320 311.688s320-140.26 320-311.688c0-114.286 0-223.723 0-328.312-32 21.333-64 48-96 80-19.385 19.385-40.718 46.052-64 80 0 33.108 0 70.442 0 112 0 62.338-48 96-96 96s-96-33.662-96-96c0-41.558 0-78.892 0-112-58.896-23.693-106.896-45.027-144-64s-85.104-50.973-144-96zM960 0c-42.667 40.504-64 61.837-64 64 0 81.019 0 209.019 0 384 0 212.077-171.923 384-384 384s-384-171.923-384-384v-384l-64-64v448c0 247.424 200.576 448 448 448s448-200.576 448-448v-448z" />
<glyph unicode="&#xe95d;" glyph-name="wireguard" data-tags="wireguard" d="M991.173 462.208c0 0 22.206 465.792-489.722 465.792-452.73 0-466.874-446.816-466.874-446.816s-66.594-513.184 477.306-513.184c521.657 0 479.29 494.208 479.29 494.208zM358.221 624.97c96.053 58.765 218.768 22.848 264.749-65.523 8.714-16.748 9.822-42.531 4.303-60.102-19.054-60.659-64.044-94.678-125.797-109.13 18.205 15.586 32.697 33.261 37.308 57.68 4.859 23.403-0.423 47.769-14.536 67.059-22.483 30.887-62.707 43.145-98.594 30.045-38.019-14.436-58.844-49.133-55.091-91.786 3.487-39.619 33.548-65.296 89.794-75.050-8.406-4.449-14.881-7.726-21.215-11.255-25.765-14.117-48.187-33.618-65.74-57.178-5.708-7.707-9.633-8.328-18.326-3.012-113.080 69.152-120.347 242.701 3.143 318.25l0.001 0.001zM273.585 197.674c-18.166-4.611-35.769-11.437-54.339-17.528 9.083 61.283 80.847 117.722 141.534 111.283-17.582-24.221-27.846-52.978-29.574-82.858-20.166-3.714-39.171-6.212-57.622-10.896v-0.002zM660.108 796.010c17.951-0.66 35.936-0.387 53.9-0.812 4.484-0.296 8.941-0.917 13.336-1.858-4.017-6.169-8.552-11.985-13.554-17.386-6.422-5.984-13.678-11.836-22.931-2.739-2.226 2.188-7.483 1.686-11.356 1.737-17.863 0.235-35.75 0.806-53.587 0.132-15.477-0.496-30.901-2.071-46.159-4.714-2.86-0.513-7.136-10.021-5.821-13.526 3.102-8.273 7.626-17.396 14.329-22.687 24.769-19.552 51.11-37.107 75.993-56.525 24.179-18.869 46.684-39.546 60.399-68.010 17.87-37.088 18.39-75.978 10.684-115.040-12.865-65.21-45.865-119.235-99.301-158.477-21.532-15.811-48.191-24.784-72.853-36.144-21.689-9.992-44.015-18.597-65.756-28.483-39.196-17.822-61.225-60.368-54.745-104.602 5.947-40.592 41.558-74.467 82.351-81.459 48.934-8.389 99.426 23.412 111.397 73.152 13.461 55.93-16.927 105.866-73.807 121.002-2.505 0.667-5.019 1.298-10.244 2.646 15.215 6.798 28.356 11.642 40.489 18.318 21.165 11.647 41.945 23.98 62.338 36.998 5.997 3.837 9.238 3.839 14.352-0.583 39.12-33.824 62.457-75.898 69.001-127.485 10.83-85.389-29.59-163.834-105.829-204.038-117.951-62.205-262.285 8.596-288.336 139.366-22.316 112.010 56.735 213.613 151.876 233.229 40.918 8.436 78.335 25.471 107.423 56.982 18.768 20.333 27.867 37.779 30.967 45.651 5.774 14.753 8.727 30.458 8.707 46.301-0.623 13.706-3.843 27.169-9.489 39.674-9.933 22.64-47.983 58.656-57.404 66.253l-89.599 70.147c-3.16 2.6-6.718 2.412-14.425 1.889-9.155-0.621-32.56-1.916-42.659 0.73 8.169 6.183 30.442 15.184 40.006 22.422-29.035 19.615-62.175 12.531-92.61 18.388 7.037 13.107 41.859 33.248 61.663 35.491-1.174 11.060-2.977 22.044-5.4 32.899-1.209 4.453-6.18 8.771-10.516 11.314-10.515 6.165-21.662 11.253-33.756 17.385 10.828 6.998 23.374 10.879 36.262 11.218 12.209 0.464 24.424-0.726 36.313-3.538 21.575-4.93 38.796-1.712 55.961 12.954-13.51 5.441-27.019 10.411-40.121 16.29-12.91 5.885-25.492 12.463-37.692 19.707 33.99-4.722 66.866-17.467 101.621-12.811 0.296 1.58 0.592 3.159 0.887 4.739-25.982 6.048-51.964 12.095-80.732 18.792 48.127 4.406 92.933 5.133 135.361-15.533 11.939-5.815 24.431-10.629 35.875-17.271 5.582-3.24 9.339-9.625 13.919-14.59 3.637-3.944 6.558-9.228 11.027-11.604 16.96-9.019 35.628-9.373 54.649-8.921 0.142 2.166 0.275 4.196 0.419 6.379 19.142-5.982 40.687-28.057 40.652-44.179-31.011 0-61.996 0.118-92.978-0.172-3.311-0.031-6.6-2.45-9.899-3.761 3.136-1.826 6.217-5.118 9.415-5.236l-0.012 0.002zM620.105 840.932c-1.269-1.043-2.088-2.813-2.207-4.772s0.475-3.877 1.602-5.171c0.945-2.182 2.517-3.775 4.365-4.424s3.817-0.298 5.466 0.974c2.985 1.975 5.913 4.078 9.52 6.576-2.905 3.253-5.236 5.939-7.634 8.532-4.218 4.559-7.715 1.695-11.112-1.714z" />
<glyph unicode="&#xe95e;" glyph-name="u-arrow-down" data-tags="u-arrow-down" d="M0 640l128 128 384-384 384 384 128-128-512-512z" />
<glyph unicode="&#xe95f;" glyph-name="u-arrow-left" data-tags="u-arrow-left" d="M704 960l128-128-384-384 384-384-128-128-512 512z" />
<glyph unicode="&#xe960;" glyph-name="u-arrow-right" data-tags="u-arrow-right" d="M320 960l512-512-512-512-128 128 384 384-384 384z" />
<glyph unicode="&#xe961;" glyph-name="u-arrow-up" data-tags="u-arrow-up" d="M0 256l512 512 512-512-128-128-384 384-384-384z" />
<glyph unicode="&#xe962;" glyph-name="u-bell" data-tags="u-bell" d="M320 128h384c0-106.039-85.961-192-192-192s-192 85.961-192 192zM0 192v160c85.333 21.333 128 96 128 224 0 192 96 384 384 384s384-192 384-384c0-128 42.667-202.667 128-224v-160h-1024zM192 320h640c-42.667 42.667-64 128-64 256 0 192-128 256-256 256s-256-64-256-256c0-128-21.333-213.333-64-256z" />
<glyph unicode="&#xe963;" glyph-name="u-duplicate" data-tags="u-duplicate" d="M256 704h768v-768h-768v768zM384 576v-512h512v512h-512zM128 192h-128v768h768v-128h-640v-640z" />
<glyph unicode="&#xe964;" glyph-name="u-expand" data-tags="u-expand" d="M128 153.568l223.107 223.107 90.679-90.341-222.334-222.334h228.548v-128h-448v448h128v-230.432zM896 742.432l-223.107-223.107-90.679 90.341 222.334 222.334h-228.548v128h448v-448h-128v230.432z" />
<glyph unicode="&#xe965;" glyph-name="u-minimize" data-tags="u-minimize" d="M320 166.432l-223.107-223.107-90.679 90.341 222.334 222.334h-228.548v128h448v-448h-128v230.432zM704 729.568l223.107 223.107 90.679-90.341-222.334-222.334h228.548v-128h-448v448h128v-230.432z" />
<glyph unicode="&#xe966;" glyph-name="u-move" data-tags="u-move" d="M384 512v-128h-192l64-64-64-64-192 192 192 192 64-64-64-64h192zM640 512h192l-64 64 64 64 192-192-192-192-64 64 64 64h-192v128zM576 576h-128v192l-64-64-64 64 192 192 192-192-64-64-64 64v-192zM576 320v-192l64 64 64-64-192-192-192 192 64 64 64-64v192h128z" />
<glyph unicode="&#xe967;" glyph-name="u-minus" data-tags="u-minus" d="M0 512v-128h1024v128z" />
<glyph unicode="&#xe968;" glyph-name="u-plus" data-tags="u-plus Copy 3" d="M448 960v-448h-448v-128h448v-448h128v448h448v128h-448v448z" />
<glyph unicode="&#xe969;" glyph-name="u-shutdown" data-tags="u-shutdown" d="M703.998 922.784c187.638-75.953 320.002-259.911 320.002-474.784 0-282.77-229.23-512-512-512s-512 229.23-512 512c0 214.849 132.334 398.789 319.938 474.758v-142.166c-114.744-66.404-191.938-190.483-191.938-332.592 0-212.077 171.923-384 384-384s384 171.923 384 384c0 142.135-77.223 266.234-192.003 332.629l0.001 142.155zM576 960v-448h-128v448h128z" />
<glyph unicode="&#xe96a;" glyph-name="u-thumbs-down" data-tags="u-thumbs-down" d="M224 864v-192c0-85.333 0-170.667 0-256 95.992-19.198 183.345-133.42 262.059-342.665 16.598-44.12 58.802-73.335 105.941-73.335 44.183 0 80 35.817 80 80v272h197.769c7.914 0 15.811 0.734 23.589 2.192 69.482 13.028 115.247 79.915 102.219 149.397l-48 256c-11.351 60.541-64.212 104.411-125.808 104.411h-597.769zM0 864v-576l128 64v512h-128z" />
<glyph unicode="&#xe96b;" glyph-name="u-thumbs-up" data-tags="u-thumbs-up" d="M0 512h128v-512l-128-64v576zM224 64v192c0 85.333 0 170.667 0 256 95.992 19.198 183.345 133.42 262.059 342.665 16.598 44.12 58.802 73.335 105.941 73.335 44.183 0 80-35.817 80-80v-272h197.769c7.914 0 15.811-0.734 23.589-2.192 69.482-13.028 115.247-79.915 102.219-149.397l-48-256c-11.351-60.541-64.212-104.411-125.808-104.411h-597.769z" />
<glyph unicode="&#xe96c;" glyph-name="u-two-thirds" data-tags="u-two-thirds" d="M0 960h640v-1024h-640v1024zM768 960h256v-1024h-256v1024zM832 896v-896h128v896h-128z" />
<glyph unicode="&#xe96d;" glyph-name="u-stop" data-tags="u-stop" d="M128 960h768c70.692 0 128-57.308 128-128v-768c0-70.692-57.308-128-128-128h-768c-70.692 0-128 57.308-128 128v768c0 70.692 57.308 128 128 128z" />
<glyph unicode="&#xe96e;" glyph-name="repeatable" data-tags="repeatable" d="M576 832v128l256.032-160-256.032-159.903v127.903c-63.913 0-138.58 0-224 0-128.13 0-288-96.015-288-288 0-84.797 27.042-159.463 81.126-224l-60.671-32c-56.303 85.415-84.455 170.749-84.455 256 0 255.923 223.951 352 352 352 85.366 0 160.033 0 224 0zM448.032 64v-128l-256.032 160 256.032 159.903v-127.903c191.913 0 138.58 0 224 0 128.13 0 288 96.015 288 288 0 84.797-27.042 180.797-81.126 224l60.671 32c56.303-64.082 84.455-170.749 84.455-256 0-255.923-223.951-352-352-352-85.366 0-32.033 0-224 0z" />
<glyph unicode="&#xe96f;" glyph-name="sharing-protocol" data-tags="sharing-protocol" d="M0 896h352l96-128h576v-768h-1024v896zM64 832v-768h896v640h-538.51l-96 128h-261.49zM612.197 404.898l-166.455-96.103c1.479-6.696 2.258-13.655 2.258-20.795 0-53.019-42.981-96-96-96s-96 42.981-96 96c0 53.019 42.981 96 96 96 22.612 0 43.398-7.818 59.803-20.898l166.455 96.103c-1.479 6.696-2.258 13.655-2.258 20.795 0 53.019 42.981 96 96 96s96-42.981 96-96c0-53.019-42.981-96-96-96-22.612 0-43.398 7.818-59.803 20.898z" />
<glyph unicode="&#xe970;" glyph-name="shop" data-tags="shop" d="M96 672h832l64-704h-960l64 704zM151.865 608l-46.545-576h813.361l-46.545 576h-720.27zM640 704v96c0 35.346-28.654 64-64 64h-128c-35.346 0-64-28.654-64-64v-96h-64v96c0 70.692 57.308 128 128 128h128c70.692 0 128-57.308 128-128v-96h-64zM352 256h64v-64h192v64h64v-128h-320v128zM480 480h64v-128h64l-96-128-96 128h64v128z" />
<glyph unicode="&#xe971;" glyph-name="snapshot" data-tags="snapshot" d="M32 800h832v-832h-832v832zM96 736v-704h704v704h-704zM928 96v768h-768v64h832v-832h-64zM448 128c-141.385 0-256 114.615-256 256s114.615 256 256 256c141.385 0 256-114.615 256-256s-114.615-256-256-256zM448 192c106.039 0 192 85.961 192 192s-85.961 192-192 192c-106.039 0-192-85.961-192-192s85.961-192 192-192zM480 544v-146.745l70.627-70.627-45.255-45.255-89.373 89.373v173.255h64z" />
<glyph unicode="&#xe972;" glyph-name="template" data-tags="template" d="M928 544h64v-160h-64v160zM928 352h64v-160h-64v160zM32 320h64v-160h-64v160zM32 512h64v-160h-64v160zM32 704h64v-160h-64v160zM928 160h64v-192h-160v64h96v128zM32 736v192h160v-64h-96v-128h-64zM224 928h160v-64h-160v64zM256 32h160v-64h-160v64zM448 32h160v-64h-160v64zM640 32h160v-64h-160v64zM416 928h160v-64h-160v64zM32 128h64v-96h128v-64h-192v160zM503.041 348.203l430.12 430.12-90.839 90.839-430.12-430.12-15.897-106.735 106.735 15.897zM842.323 960l181.677-181.677-490.529-490.529-213.471-31.794 31.794 213.471 490.529 490.529z" />
<glyph unicode="&#xe973;" glyph-name="themes" data-tags="themes" d="M512-32c-265.097 0-480 214.903-480 480s214.903 480 480 480c265.097 0 480-214.903 480-480s-214.903-480-480-480zM512 32c229.75 0 416 186.25 416 416s-186.25 416-416 416c-229.75 0-416-186.25-416-416s186.25-416 416-416zM521.674 224h-109.395c18.233 18.478 0 55.435 0 55.435s0-27.717-36.465-55.435h-119.814c48.62 24.638 72.93 86.232 72.93 184.782 54.698 0 338.605 0 375.070 0 0-110.869-24.31-172.463-72.93-184.782h-79.56c14.918 12.319 6.63 36.956 6.63 36.956s-6.63-18.478-36.465-36.956zM328.93 439.579v61.594c82.36-12.215 129.243-7.082 140.651 15.398 17.112 33.721-46.884 138.586-15.628 184.782s93.767 46.195 125.023 0c31.256-46.195-31.256-153.985-15.628-184.782 10.419-20.531 57.302-25.664 140.651-15.398v-61.594h-375.070z" />
<glyph unicode="&#xe974;" glyph-name="zip" data-tags="zip" d="M32 928h960v-960h-960v960zM96 864v-832h832v832h-832zM448 800h128v-64h-128v64zM448 704h128v-64h-128v64zM448 608h128v-64h-128v64zM448 512h128l26.782-187.475c0.214-1.499 0.322-3.011 0.322-4.525 0-17.673-14.327-32-32-32h-118.207c-1.514 0-3.026 0.107-4.525 0.322-17.495 2.499-29.652 18.708-27.153 36.204l26.782 187.475zM499.36 320h25.281c17.673 0 32 14.327 32 32 0 1.063-0.053 2.126-0.159 3.184l-3.2 32c-1.636 16.358-15.401 28.816-31.841 28.816h-18.881c-16.44 0-30.205-12.457-31.841-28.816l-3.2-32c-1.759-17.585 11.072-33.267 28.657-35.025 1.058-0.106 2.121-0.159 3.184-0.159z" />
<glyph unicode="&#xe975;" glyph-name="security" data-tags="security" d="M64 800c234.667 0 362.667 42.667 448 128 64-85.333 192-128 448-128 0-448-128-725.333-448-832-320 106.667-448 384-448 832zM512 35.798c263.124 96.542 369.227 325.926 382.877 701.146-195.155 5.848-302.62 39.074-386.881 104.936-93.27-64.414-198.285-98.359-378.88-104.759 13.613-375.324 119.719-604.765 382.883-701.322z" />
<glyph unicode="&#xe976;" glyph-name="packages" data-tags="packages" d="M288 928h448v-448h-448v448zM352 864v-320h320v320h-320zM480.221 863.854l63.779 0.146-0.221-95.854-63.779-0.146 0.221 95.854zM32 416h448v-448h-448v448zM96 352v-320h320v320h-320zM224.221 351.854l63.779 0.146-0.221-95.854-63.779-0.146 0.221 95.854zM544 416h448v-448h-448v448zM608 352v-320h320v320h-320zM736.221 351.854l63.779 0.146-0.221-95.854-63.779-0.146 0.221 95.854z" />
<glyph unicode="&#xe977;" glyph-name="energysaving" data-tags="energysaving" d="M992 448c0-265.080-214.92-480-480-480s-480 214.92-480 480c0 265.080 214.92 480 480 480s480-214.92 480-480zM928 448c0 229.382-186.618 416-416 416s-416-186.618-416-416c0-229.382 186.618-416 416-416s416 186.618 416 416zM396.774 313.905c-31.844 105.651-23.883 195.048 23.883 268.19s123.394 113.778 226.886 121.905c-4.641-51.2 1.433-119.467 18.222-204.8 25.184-128-30.163-197.486-89.87-221.867-39.804-16.254-79.609-16.254-119.413 0 31.844 32.508 55.726 69.079 71.648 109.714s23.883 89.397 23.883 146.286c-23.883-81.27-55.726-150.349-95.531-207.238s-87.57-101.587-143.296-134.095h-25.184c16.79 11.378 36.377 28.444 58.763 51.2s39.056 46.324 50.010 70.705z" />
<glyph unicode="&#xe978;" glyph-name="performance" data-tags="performance" d="M992 448c0-265.080-214.92-480-480-480s-480 214.92-480 480c0 265.080 214.92 480 480 480s480-214.92 480-480zM928 448c0 229.382-186.618 416-416 416s-416-186.618-416-416c0-229.382 186.618-416 416-416s416 186.618 416 416zM432.64 128l70.987 254.199h-151.627l249.92 353.801-69.12-243.642h139.2l-239.36-364.358z" />
<glyph unicode="&#xe979;" glyph-name="disc" data-tags="disc" d="M512-32c-265.097 0-480 214.903-480 480s214.903 480 480 480c265.097 0 480-214.903 480-480s-214.903-480-480-480zM512 32c229.75 0 416 186.25 416 416s-186.25 416-416 416c-229.75 0-416-186.25-416-416s186.25-416 416-416zM512 320c-70.692 0-128 57.308-128 128s57.308 128 128 128c70.692 0 128-57.308 128-128s-57.308-128-128-128zM512 384c35.346 0 64 28.654 64 64s-28.654 64-64 64c-35.346 0-64-28.654-64-64s28.654-64 64-64z" />
<glyph unicode="&#xe97a;" glyph-name="custom" data-tags="custom" d="M992 448c0-265.080-214.92-480-480-480s-480 214.92-480 480c0 265.080 214.92 480 480 480s480-214.92 480-480zM928 448c0 229.382-186.618 416-416 416s-416-186.618-416-416c0-229.382 186.618-416 416-416s416 186.618 416 416zM440.288 626.16c14.153 5.702 29.142 9.767 44.732 11.959l10.98 65.881h32l10.98-65.881c15.59-2.192 30.579-6.257 44.732-11.959l42.432 51.543 27.713-16-23.437-62.56c12.176-9.554 23.17-20.547 32.723-32.723l62.56 23.437 16-27.713-51.543-42.432c5.702-14.153 9.767-29.142 11.959-44.732l65.881-10.98v-32l-65.881-10.98c-2.192-15.59-6.257-30.579-11.959-44.732l51.543-42.432-16-27.713-62.56 23.437c-9.554-12.176-20.547-23.17-32.723-32.723l23.437-62.56-27.713-16-42.432 51.543c-14.153-5.702-29.142-9.767-44.732-11.959l-10.98-65.881h-32l-10.98 65.881c-15.59 2.192-30.579 6.257-44.732 11.959l-42.432-51.543-27.713 16 23.437 62.56c-12.176 9.554-23.17 20.547-32.723 32.723l-62.56-23.437-16 27.713 51.543 42.432c-5.702 14.153-9.767 29.142-11.959 44.732l-65.881 10.98v32l65.881 10.98c2.192 15.59 6.257 30.579 11.959 44.732l-51.543 42.432 16 27.713 62.56-23.437c9.554 12.176 20.547 23.17 32.723 32.723l-23.437 62.56 27.713 16 42.432-51.543zM512 320c70.692 0 128 57.308 128 128s-57.308 128-128 128c-70.692 0-128-57.308-128-128s57.308-128 128-128z" />
<glyph unicode="&#xe97b;" glyph-name="algorithm" data-tags="algorithm" d="M126.264 448.015c-52.218 0.926-94.264 43.545-94.264 95.985 0 53.019 42.981 96 96 96 12.819 0 25.052-2.513 36.232-7.073l135.707 152.67c-7.608 13.753-11.939 29.572-11.939 46.402 0 53.019 42.981 96 96 96 47.997 0 87.767-35.223 94.871-81.231l334.050-62.634c16.618 28.62 47.601 47.865 83.079 47.865 53.019 0 96-42.981 96-96 0-43.903-29.471-80.923-69.71-92.356l-20.705-331.281c34.34-14.625 58.415-48.683 58.415-88.363 0-53.019-42.981-96-96-96-32.534 0-61.289 16.184-78.651 40.941l-401.572-111.548c-3.394-49.937-44.978-89.393-95.776-89.393-53.019 0-96 42.981-96 96 0 30.783 14.489 58.182 37.019 75.75l-102.755 308.265zM212.061 590.402c5.954-10.762 9.9-22.789 11.335-35.576l239.595-55.291c4.653 7.299 10.265 13.926 16.659 19.705l-90.376 216.902c-1.746-0.095-3.504-0.142-5.274-0.142-12.819 0-25.052 2.513-36.232 7.073l-135.707-152.67zM209.009 492.465c-5.914-9.277-13.378-17.471-22.028-24.215l102.755-308.265c7.529-0.134 14.847-1.134 21.858-2.905l155.572 233.358c-9.995 13.32-16.607 29.324-18.562 46.737l-239.595 55.291zM467.079 783.865c-5.022-8.649-11.355-16.441-18.729-23.106l90.376-216.902c1.746 0.095 3.504 0.142 5.274 0.142 18.233 0 35.279-5.083 49.799-13.91l211.866 173.345c-2.055 5.701-3.587 11.652-4.535 17.796l-334.050 62.634zM858.415 647.637c-4.236 1.804-8.316 3.904-12.213 6.273l-211.866-173.345c3.666-10.168 5.664-21.133 5.664-32.565 0-8.903-1.212-17.523-3.48-25.703l171.676-120.173c8.838 6.324 18.794 11.186 29.514 14.232l20.705 331.281zM768.224 230.607c0.447 6.569 1.554 12.956 3.256 19.096l-171.676 120.173c-15.726-11.253-34.992-17.876-55.804-17.876-8.141 0-16.045 1.013-23.594 2.921l-155.572-233.358c0.619-0.824 1.224-1.659 1.817-2.504l401.572 111.548zM896 704c17.673 0 32 14.327 32 32s-14.327 32-32 32c-17.673 0-32-14.327-32-32s14.327-32 32-32zM384 800c17.673 0 32 14.327 32 32s-14.327 32-32 32c-17.673 0-32-14.327-32-32s14.327-32 32-32zM128 512c17.673 0 32 14.327 32 32s-14.327 32-32 32c-17.673 0-32-14.327-32-32s14.327-32 32-32zM544 416c17.673 0 32 14.327 32 32s-14.327 32-32 32c-17.673 0-32-14.327-32-32s14.327-32 32-32zM864 192c17.673 0 32 14.327 32 32s-14.327 32-32 32c-17.673 0-32-14.327-32-32s14.327-32 32-32zM288 32c17.673 0 32 14.327 32 32s-14.327 32-32 32c-17.673 0-32-14.327-32-32s14.327-32 32-32z" />
<glyph unicode="&#xe97c;" glyph-name="move" data-tags="move" d="M480 576v224l-80-80-48 48 160 160 160-160-48-48-80 80v-224h-64zM480 320h64v-224l80 80 48-48-160-160-160 160 48 48 80-80v224zM384 480v-64h-224l80-80-48-48-160 160 160 160 48-48-80-80h224zM640 480h224l-80 80 48 48 160-160-160-160-48 48 80 80h-224v64z" />
<glyph unicode="&#xe97d;" glyph-name="warning" data-tags="warning" d="M527.111 856.443c5.561-2.979 10.117-7.535 13.096-13.096l426.555-796.235c8.346-15.578 2.482-34.973-13.096-43.318-4.648-2.49-9.839-3.793-15.111-3.793h-853.109c-17.673 0-32 14.327-32 32 0 5.273 1.303 10.463 3.793 15.111l426.555 796.235c8.346 15.578 27.74 21.442 43.318 13.096zM512 760.47l-373.109-696.47h746.218l-373.109 696.47zM544 224v-64h-64v64h64zM544 512v-256h-64v256h64z" />
<glyph unicode="&#xe97e;" glyph-name="rocket" data-tags="rocket" d="M960 896c6.719-6.719 31.939-288.061-96-416-149.333-149.333-320-272-512-368l-176 176c96 192 218.667 362.667 368 512 127.916 127.916 409.218 102.782 416 96zM886.674 838.501c-26.175 0.34-54.528-0.79-82.778-3.661-94.124-9.566-170.93-36.384-214.641-80.095-133.775-133.775-245.402-285.214-334.988-454.502l109.976-109.976c169.288 89.586 320.728 201.213 454.502 334.988 43.715 43.715 70.523 120.523 80.079 214.665 2.867 28.246 3.994 56.594 3.654 82.773l-0.378 15.429-15.425 0.378zM576 192c-21.333-106.667-42.667-170.667-64-192s-74.667-32-160-32l16 112c40.495 19.344 72.495 35.344 96 48s60.838 33.99 112 64zM304 112c-10.667-42.667-21.333-69.333-32-80s-37.333-21.333-80-32c10.667 42.667 21.333 69.333 32 80s37.333 21.333 80 32zM240 176c-10.667-53.333-26.667-90.667-48-112s-64-42.667-128-64c21.333 64 42.667 106.667 64 128s58.667 37.333 112 48zM176 240c-10.667-42.667-21.333-69.333-32-80s-37.333-21.333-80-32c10.667 42.667 21.333 69.333 32 80s37.333 21.333 80 32zM256 512c-30.010-51.162-51.344-88.495-64-112s-28.656-55.505-48-96v0l-112-16c0 85.333 10.667 138.667 32 160s85.333 42.667 192 64zM672 752c45.791 0.536 89.373-9.373 112-32s32.536-66.209 32-112l-48-48-144 144 48 48z" />
<glyph unicode="&#xe97f;" glyph-name="fort" data-tags="fort" d="M512 928c265.080 0 480-214.92 480-480s-214.92-480-480-480c-265.080 0-480 214.92-480 480s214.92 480 480 480zM512 864c-229.382 0-416-186.618-416-416 0-140.892 70.405-265.65 177.882-340.94l30.424 447.777 2.954 0.423c86.264 12.382 154.511 18.574 204.74 18.574 50.8 0 120.030-6.333 207.688-18.998l30.463-447.753c107.458 75.292 177.849 200.039 177.849 340.917 0 229.382-186.618 416-416 416zM576 384h-128v-128h128v128zM531.738 735.993c19.061-0.469 38.773-1.609 59.136-3.421l-0.105-40.757 39.385-4.323 0.069 40.847c25.304-3.176 51.538-7.31 78.7-12.401l8.034-120.114-0.217 0.037c-86.264 12.382-154.511 18.574-204.74 18.574-52.158 0-120.505-6.676-205.041-20.027l8.118 121.53c27.194 5.097 53.457 9.234 78.789 12.412l-0.020-40.858 39.385 4.323 0.111 40.778c20.302 1.802 39.956 2.938 58.963 3.407l0.003-40.363h39.385l0.046 40.356z" />
<glyph unicode="&#xe980;" glyph-name="experiments" data-tags="experiments" d="M736 928c17.673 0 32-14.327 32-32v-50.745c0-8.487-3.371-16.626-9.373-22.627l-45.255-45.255c-6.001-6.001-9.373-14.14-9.373-22.627v-234.797c0-5.219 1.277-10.36 3.719-14.972l159.942-302.114c41.345-78.096 11.552-174.923-66.544-216.268-23.064-12.21-48.765-18.594-74.862-18.594h-428.51c-88.366 0-160 71.634-160 160 0 26.097 6.383 51.798 18.594 74.862l159.942 302.114c2.442 4.613 3.719 9.753 3.719 14.972v234.797c0 8.487-3.371 16.626-9.373 22.627l-45.255 45.255c-6.001 6.001-9.373 14.14-9.373 22.627v50.745c0 17.673 14.327 32 32 32h448zM704 864h-384v-5.49l35.882-35.882c18.003-18.003 28.118-42.421 28.118-67.882v-234.797c0-15.658-3.83-31.079-11.156-44.917l-159.942-302.114c-7.326-13.839-11.156-29.259-11.156-44.917 0-53.019 42.981-96 96-96h428.51c15.658 0 31.079 3.83 44.917 11.156 46.858 24.807 64.734 82.903 39.926 129.761l-159.942 302.114c-7.326 13.839-11.156 29.259-11.156 44.917v234.797c0 25.461 10.114 49.879 28.118 67.882l35.882 35.882v5.49zM640 390.4l113.689-227.378c15.807-31.615 2.993-70.058-28.622-85.865-8.887-4.443-18.686-6.757-28.622-6.757h-368.892c-35.346 0-64 28.654-64 64 0 9.936 2.313 19.735 6.757 28.622l113.689 227.378h256zM560 320c-35.346 0-64-28.654-64-64s28.654-64 64-64c35.346 0 64 28.654 64 64s-28.654 64-64 64zM480 512c17.673 0 32-14.327 32-32s-14.327-32-32-32c-17.673 0-32 14.327-32 32s14.327 32 32 32zM544 672c26.51 0 48-21.49 48-48s-21.49-48-48-48c-26.51 0-48 21.49-48 48s21.49 48 48 48z" />
<glyph unicode="&#xe981;" glyph-name="chat" data-tags="chat" d="M992 768v-608h-96v-160l-192 160h-416l80 64h560v480h-128v64h192zM768 896v-608h-448l-192-160v160h-96v608h736zM704 830.968h-608v-474.839h608v474.839zM416 512v-32h-224v32h224zM512 576v-32h-320v32h320zM544 640v-32h-352v32h352zM448 704v-32h-256v32h256z" />
<glyph unicode="&#xe982;" glyph-name="u-switch" data-tags="u-switch" d="M192 192l256-256v192h576v640h-128v-512h-448v192l-256-256zM0 128h128v512h448v-192l256 256-256 256v-192h-576v-640z" />
<glyph unicode="&#xe983;" glyph-name="language" data-tags="language" d="M512 896c265.097 0 480-196.259 480-438.357 0-98.972-35.916-190.284-96.495-263.657-3.869-4.686-7.839-9.299-11.906-13.836l21.84-37.668c75.45-129.040 99.894-161.187 70.561-193.333-32-35.069-80 0-275.211 105.344-57.946-22.661-121.763-35.207-188.789-35.207-265.097 0-480 196.259-480 438.357s214.903 438.357 480 438.357zM512 832c-230.982 0-416-168.967-416-374.357s185.018-374.357 416-374.357c52.952 0 104.415 8.894 152.462 25.956l13.018 4.855 27.612 10.798 147.004-79.943 28.817-15.387c4.241-2.225 8.222-4.291 11.972-6.211l11.308-5.689-9.983 17.519-47.399 80.782-18.707 32.307-23.053 40.134 30.894 34.463c3.491 3.894 6.894 7.849 10.208 11.863 52.969 64.156 81.847 141.575 81.847 222.91 0 205.39-185.018 374.357-416 374.357zM663.040 648.448v-60.672h152.448v-44.544h-55.296c-20.736-56.448-48.768-103.296-84.096-141.696 39.552-30.336 87.936-52.992 146.304-66.048-11.136-11.136-25.728-32.64-32.64-45.696-61.824 15.744-111.744 41.472-152.064 75.648-38.368-30.624-83.189-54.149-135.351-72.055l-4.713-1.513 1.399-3.872h-57.891l-26.953 79.688h-133.594l-27.188-79.688h-57.656l125.391 341.25h53.906l105.403-289.997c47.612 14.615 88.465 34.566 122.302 60.363-31.68 36.256-56.584 79.611-76.487 129.768l-5.305 13.848h-54.912v44.544h150.528v60.672h46.464zM348.562 561.047h-1.406l-50.156-145.781h101.016l-49.453 145.781zM706.432 543.232h-134.4c16.128-41.472 38.784-78.336 68.352-109.44 27.648 29.952 49.536 66.432 66.048 109.44z" />
<glyph unicode="&#xe984;" glyph-name="certificate" data-tags="certificate" d="M512 928c194.404 0 352-157.596 352-352 0-93.528-36.477-178.536-95.98-241.575l-0.020-398.425-256 176-256-176 0.010 398.393c-59.521 63.042-96.010 148.063-96.010 241.607 0 194.404 157.596 352 352 352zM512 224c-70.824 0-136.763 20.917-191.976 56.91l-0.024-223.244 192 132 192-132 0.007 223.265c-55.219-36.006-121.17-56.931-192.007-56.931zM693.004 351.975h-362.008c49.459-40.011 112.433-63.975 181.004-63.975s131.545 23.965 181.004 63.975zM512 864c-159.058 0-288-128.942-288-288 0-90.472 41.717-171.2 106.964-223.999h362.073c65.247 52.799 106.964 133.527 106.964 223.999 0 159.058-128.942 288-288 288zM658.824 704l45.176-44.308-248.471-243.692-135.529 132.923 45.176 44.308 90.353-88.615 203.294 199.385z" />
<glyph unicode="&#xe985;" glyph-name="sync" data-tags="sync" d="M96 448c0-229.75 186.25-416 416-416 103.002 0 197.261 37.435 269.913 99.441l-77.913 77.94 265.129 90.51-84.11-271.529-57.718 57.711c-84.338-73.535-194.619-118.072-315.301-118.072-265.097 0-480 214.903-480 480 0 32.87 3.304 64.968 9.598 95.98l65.533 0.015c-7.279-30.816-11.131-62.956-11.131-95.995zM512 928c265.097 0 480-214.903 480-480 0-21.707-1.441-43.077-4.232-64.020l-64.665-0.007c3.224 20.871 4.897 42.253 4.897 64.027 0 229.75-186.25 416-416 416-93.19 0-179.223-30.642-248.574-82.401l66.612-66.618-265.129-90.51 84.11 271.529 68.729-68.741c81.267 63.143 183.369 100.741 294.252 100.741z" />
<glyph unicode="&#xe986;" glyph-name="plugins-fill" data-tags="plugins-fill" d="M992 928v-960h-544l0.004 329.857c34.351-28.61 80.585-41.857 131.437-41.857 106.039 0 192 85.961 192 192s-85.961 192-192 192c-50.851 0-97.086-13.246-131.437-41.857v0l-0.004 329.857h544zM384.011 539.675c23.552-29.446 52.77-30.745 87.655-3.897v0l9.147 7.3c83.468 64.053 223.187 39.571 223.187-95.078s-144.956-159.131-223.472-95.078v0l-4.292 3.649c-35.598 31.541-66.348 30.439-92.252-3.307v0l0.017-385.265h-352v960h352z" />
<glyph unicode="&#xe987;" glyph-name="language-filled" data-tags="language-filled" d="M512 896c265.097 0 480-196.259 480-438.357 0-98.972-35.916-190.284-96.495-263.657-3.869-4.686-7.839-9.299-11.906-13.836l21.84-37.668c75.45-129.040 99.894-161.187 70.561-193.333-32-35.069-80 0-275.211 105.344-57.946-22.661-121.763-35.207-188.789-35.207-265.097 0-480 196.259-480 438.357s214.903 438.357 480 438.357zM663.040 648.448h-46.464v-60.672h-150.528v-44.544h54.912l5.305-13.848c19.903-50.158 44.807-93.512 76.487-129.768-33.837-25.797-74.69-45.748-122.302-60.363v0l-105.403 289.997h-53.906l-125.391-341.25h57.656l27.188 79.688h133.594l26.953-79.688h57.891l-1.399 3.872 4.713 1.513c47.42 16.278 88.773 37.2 124.727 63.878l10.625 8.177c40.32-34.176 90.24-59.904 152.064-75.648 6.912 13.056 21.504 34.56 32.64 45.696-58.368 13.056-106.752 35.712-146.304 66.048 35.328 38.4 63.36 85.248 84.096 141.696v0h55.296v44.544h-152.448v60.672zM348.562 561.047l49.453-145.781h-101.016l50.156 145.781h1.406zM706.432 543.232c-16.512-43.008-38.4-79.488-66.048-109.44-29.568 31.104-52.224 67.968-68.352 109.44v0z" />
<glyph unicode="&#xe988;" glyph-name="discord" data-tags="discord" d="M858.957 721.937c-83.061 66.341-214.477 77.585-220.111 77.978-8.774 0.717-17.046-4.151-20.619-12.134-2.507-5.595-4.633-11.35-6.365-17.227 54.95-9.214 122.442-27.746 183.506-65.348 6.338-3.902 10.096-10.862 9.858-18.259s-4.434-14.106-11.009-17.6c-6.575-3.494-14.529-3.243-20.867 0.659-104.974 64.664-236.077 67.874-261.35 67.874-25.252 0-156.438-3.23-261.35-67.853-9.797-6.032-22.668-3.043-28.748 6.678s-3.067 22.49 6.73 28.522c61.064 37.498 128.557 56.113 183.506 65.244-3.172 10.27-6.052 16.751-6.261 17.31-3.561 8.043-11.905 12.929-20.723 12.134-5.635-0.414-137.050-11.637-221.259-78.869-43.93-40.335-131.896-276.195-131.896-480.106 0-3.644 0.981-7.123 2.776-10.27 60.647-105.807 226.226-133.449 263.958-134.671h0.647c6.679-0.017 12.964 3.139 16.904 8.49l38.129 52.096c-102.95 26.359-155.541 71.166-158.546 73.837-8.644 7.57-9.467 20.66-1.837 29.237s20.823 9.392 29.468 1.822c1.21-1.139 98.066-82.658 288.501-82.658 190.748 0 287.603 81.85 288.584 82.658 8.671 7.516 21.838 6.645 29.426-1.946 3.643-4.107 5.492-9.482 5.14-14.942s-2.877-10.557-7.018-14.17c-3.005-2.671-55.597-47.478-158.546-73.837l38.15-52.096c3.936-5.345 10.211-8.5 16.883-8.49h0.626c37.774 1.222 203.332 28.885 264 134.671 1.774 3.147 2.755 6.626 2.755 10.27 0 203.911-87.965 439.75-133.043 480.996zM376.348 323.764c-40.362 0-73.043 37.063-73.043 82.823s32.682 82.823 73.043 82.823c40.362 0 73.043-37.063 73.043-82.823s-32.682-82.823-73.043-82.823zM647.652 323.764c-40.362 0-73.043 37.063-73.043 82.823s32.682 82.823 73.043 82.823c40.362 0 73.043-37.063 73.043-82.823s-32.682-82.823-73.043-82.823z" />
<glyph unicode="&#xe989;" glyph-name="arrange" data-tags="arrange" d="M896 288v-64h-352v-96h96l-128-160-128 160h96v96h-352v64h768zM896 480v-64h-768v64h768zM512 928l128-160h-96v-96h352v-64h-768v64h352v96h-96l128 160z" />
<glyph unicode="&#xe98a;" glyph-name="globe" data-tags="globe" d="M512 928c265.097 0 480-214.903 480-480s-214.903-480-480-480c-265.097 0-480 214.903-480 480s214.903 480 480 480zM496 270.112l16 0.199c-58.583 0-117.194-6.847-175.847-20.554 19.39-64.685 48.286-129.411 86.704-194.235l9.143-15.136-0.859-0.532c21.097-4.156 42.766-6.717 64.878-7.552l-0.018 237.811zM528.028 270.14l-0.009-237.837c22.724 0.86 44.982 3.544 66.63 7.907l-0.276 0.175c42.908 69.725 74.8 139.334 95.714 208.856-54.083 12.786-108.086 19.748-162.060 20.898zM305.089 241.869c-41.598-11.445-83.236-26.341-124.905-44.695 51.869-68.614 124.513-120.574 208.554-146.61-36.74 63.693-64.614 127.465-83.649 191.304zM721.073 241.259c-18.915-63.336-46.55-126.594-82.858-189.767 82.778 26.316 154.354 77.876 205.656 145.637-40.964 18.066-81.892 32.766-122.799 44.13zM274.558 432.023l-178.256-0.009c2.889-76.472 26.421-147.661 65.184-208.153 45.024 20.188 90.079 36.469 135.159 48.861-13.507 53.042-20.859 106.154-22.086 159.301zM927.699 432.017l-175.955 0.015-0.020-3.593c-1.474-52.159-8.844-104.285-22.095-156.368 44.304-12.286 88.61-28.358 132.89-48.189 38.753 60.451 62.291 131.649 65.18 208.136zM719.806 432.011l-191.806 0.021v-129.92l4.745-0.076c55.318-1.464 110.611-8.781 165.87-21.942 12.914 50.677 19.964 101.313 21.191 151.916zM496 432.032h-189.408l0.043-2.618c1.396-49.568 8.378-99.168 20.959-148.81 56.126 13.22 112.264 20.399 168.425 21.544l-0.019 129.884zM160.649 670.803l-4.72-7.583c-35.442-58.512-56.869-126.46-59.625-199.19l178.289 0.001 0.051 3.287c1.438 51.515 8.626 102.998 21.553 154.439-45.209 12.414-90.393 28.774-135.547 49.045zM327.207 613.784c-12.558-49.959-19.429-99.884-20.64-149.777l189.432 0.025v128.192l-4.543 0.045c-54.777 1.435-109.531 8.61-164.25 21.515zM699.054 614.307l-16.842-3.826c-51.373-11.159-102.776-17.268-154.2-18.318l-0.012-128.132h191.744l-0.002 2.434c-1.378 49.245-8.27 98.523-20.687 147.842zM863.355 670.822l-17.883-7.841c-38.467-16.388-76.956-29.942-115.463-40.658 13.315-52.712 20.583-105.489 21.806-158.302l175.883-0.004c-2.874 75.906-26.085 146.606-64.343 206.805zM496 863.68l16 0.32c-27.667 0-54.703-2.701-80.859-7.853l0.859-0.532c-43.335-70.419-75.434-140.721-96.336-210.933 53.482-12.545 106.925-19.375 160.343-20.511l-0.007 239.51zM528.019 863.697l-0.019-239.473 3.825 0.037c52.869 1.394 105.761 8.364 158.688 20.921-19.369 65.044-48.369 130.121-86.997 195.296l-9.143 15.136 0.276 0.175c-21.649 4.364-43.906 7.047-66.63 7.907zM388.692 845.436l-8.18-2.644c-81.070-26.988-151.051-78.249-201.321-145.164 41.854-18.542 83.655-33.534 125.432-45.046 19.068 64.395 47.093 128.67 84.069 192.853zM638.172 844.522l4.938-8.623c34.197-60.826 60.355-121.731 78.451-182.698 41.041 11.415 82.122 26.206 123.233 44.366-51.35 68.433-123.294 120.463-206.622 146.954z" />
<glyph unicode="&#xe98b;" glyph-name="health" data-tags="health" d="M512 928c265.097 0 480-214.903 480-480s-214.903-480-480-480c-265.097 0-480 214.903-480 480s214.903 480 480 480zM445.335 573.462l-51.101-158.672-296.928 0.005c16.918-214.226 196.12-382.795 414.694-382.795s397.776 168.569 414.694 382.795l-281.63-0.005-34.944 89.646-84.106-285.962-80.679 354.988zM512 864c-229.75 0-416-186.25-416-416 0-0.397 0.001-0.794 0.002-1.19l274.92-0.020 79.744 247.61 79.321-349.012 75.894 258.038 61.056-156.636 261.064 0.026v1.184c0 226.468-180.966 410.67-406.181 415.886z" />
<glyph unicode="&#xe98c;" glyph-name="mover" data-tags="mover" d="M512 928c265.097 0 480-214.903 480-480s-214.903-480-480-480c-265.097 0-480 214.903-480 480s214.903 480 480 480zM512 864c-229.75 0-416-186.25-416-416s186.25-416 416-416c229.75 0 416 186.25 416 416s-186.25 416-416 416zM664 504l136-136.015-136-135.985-24 23.807 96 96h-256v32.193h256l-96 96 24 24zM360 664l24-24-96-96h256v-32.193h-256l96-96-24-23.807-136 135.985 136 136.015z" />
</font>
</defs>
</svg>
